version 1
nodes
0 "ValveBiped.Bip01_Pelvis" -1
1 "ValveBiped.Bip01_Spine" 0
2 "ValveBiped.Bip01_Spine1" 1
3 "ValveBiped.Bip01_Spine2" 2
4 "ValveBiped.Bip01_Spine4" 3
5 "ValveBiped.Bip01_Neck1" 4
6 "ValveBiped.Bip01_Head1" 5
7 "ValveBiped.forward" 6
8 "ValveBiped.Bip01_R_Clavicle" 4
9 "ValveBiped.Bip01_R_UpperArm" 8
10 "ValveBiped.Bip01_R_Forearm" 9
11 "ValveBiped.Bip01_R_Hand" 10
12 "ValveBiped.Anim_Attachment_RH" 11
13 "ValveBiped.Bip01_R_Finger4" 11
14 "ValveBiped.Bip01_R_Finger41" 13
15 "ValveBiped.Bip01_R_Finger42" 14
16 "ValveBiped.Bip01_R_Finger3" 11
17 "ValveBiped.Bip01_R_Finger31" 16
18 "ValveBiped.Bip01_R_Finger32" 17
19 "ValveBiped.Bip01_R_Finger2" 11
20 "ValveBiped.Bip01_R_Finger21" 19
21 "ValveBiped.Bip01_R_Finger22" 20
22 "ValveBiped.Bip01_R_Finger1" 11
23 "ValveBiped.Bip01_R_Finger11" 22
24 "ValveBiped.Bip01_R_Finger12" 23
25 "ValveBiped.Bip01_R_Finger0" 11
26 "ValveBiped.Bip01_R_Finger01" 25
27 "ValveBiped.Bip01_R_Finger02" 26
28 "ValveBiped.Physgun_attachment" 11
29 "ValveBiped.Bip01_R_Ulna" 10
30 "ValveBiped.Bip01_R_Wrist" 10
31 "ValveBiped.Bip01_R_Elbow" 9
32 "ValveBiped.Bip01_R_Bicep" 9
33 "ValveBiped.Bip01_R_Shoulder" 9
34 "ValveBiped.Bip01_R_Trapezius" 8
35 "ValveBiped.Bip01_L_Clavicle" 4
36 "ValveBiped.Bip01_L_UpperArm" 35
37 "ValveBiped.Bip01_L_Forearm" 36
38 "ValveBiped.Bip01_L_Hand" 37
39 "ValveBiped.Anim_Attachment_LH" 38
40 "ValveBiped.Bip01_L_Finger4" 38
41 "ValveBiped.Bip01_L_Finger41" 40
42 "ValveBiped.Bip01_L_Finger42" 41
43 "ValveBiped.Bip01_L_Finger3" 38
44 "ValveBiped.Bip01_L_Finger31" 43
45 "ValveBiped.Bip01_L_Finger32" 44
46 "ValveBiped.Bip01_L_Finger2" 38
47 "ValveBiped.Bip01_L_Finger21" 46
48 "ValveBiped.Bip01_L_Finger22" 47
49 "ValveBiped.Bip01_L_Finger0" 38
50 "ValveBiped.Bip01_L_Finger01" 49
51 "ValveBiped.Bip01_L_Finger02" 50
52 "ValveBiped.Bip01_L_Finger1" 38
53 "ValveBiped.Bip01_L_Finger11" 52
54 "ValveBiped.Bip01_L_Finger12" 53
55 "ValveBiped.Bip01_L_Ulna" 37
56 "ValveBiped.Bip01_L_Wrist" 37
57 "ValveBiped.Bip01_L_Elbow" 36
58 "ValveBiped.Bip01_L_Bicep" 36
59 "ValveBiped.Bip01_L_Shoulder" 36
60 "ValveBiped.Bip01_L_Trapezius" 35
61 "ValveBiped.Bip01_R_Thigh" 0
62 "ValveBiped.Bip01_R_Calf" 61
63 "ValveBiped.Bip01_R_Foot" 62
64 "ValveBiped.Bip01_R_Toe0" 63
65 "ValveBiped.Bip01_L_Thigh" 0
66 "ValveBiped.Bip01_L_Calf" 65
67 "ValveBiped.Bip01_L_Foot" 66
68 "ValveBiped.Bip01_L_Toe0" 67
69 "ValveBiped.Cod" 0
end
skeleton
time 0
0  0.574803 0.864069 38.509850  1.412967 0.000027 -0.000133
1  0.000015 3.345130 -2.981902  1.570807 0.029614 1.570994
2  4.018325 0.000005 -0.000000  0.002908 0.003529 0.290040
3  3.518573 0.000033 -0.000001  0.024746 -0.022133 0.014497
4  8.942598 0.000002 -0.000023  -0.020861 -0.003429 -0.060757
5  3.307257 -0.000051 0.000008  3.139744 -0.002792 0.242041
6  3.593696 -0.000046 -0.000013  0.081550 -0.013598 0.182863
7  2.000659 -2.999558 0.000000  -1.570796 0.000000 -1.326228
8  2.033332 1.000744 -1.937600  0.522513 1.773172 -0.738481
9  6.028125 0.000058 0.000014  0.106087 0.198338 -1.262219
10  11.692547 -0.000030 0.000009  0.144398 0.050855 -0.169567
11  11.481748 0.000080 0.000040  0.047064 0.053451 0.796830
12  2.676085 -1.712449 -0.000008  -1.570793 -0.000003 -1.570908
13  3.859678 -0.132570 1.193094  0.502879 0.064513 -1.130243
14  1.312567 -0.000007 -0.000009  0.004479 0.013640 0.415672
15  0.729356 0.000004 0.000001  -0.022939 0.093095 -0.099458
16  3.942296 0.050324 0.431027  0.169210 0.003474 -1.068434
17  1.539083 -0.000008 -0.000006  0.005351 0.003857 0.253364
18  1.196326 -0.000005 0.000000  0.004908 -0.034205 0.231221
19  3.883655 -0.050329 -0.431057  -0.076483 -0.005507 -0.962109
20  1.719583 -0.000002 -0.000002  0.012663 -0.003961 0.345711
21  1.209175 -0.000006 -0.000001  0.020939 -0.219895 0.151116
22  3.859819 -0.148941 -1.331295  -0.350562 -0.071311 -0.853857
23  1.719420 0.000008 0.000004  0.008238 -0.004461 0.344538
24  1.099666 0.000001 -0.000001  0.031725 -0.218326 0.070525
25  0.806011 -0.359840 -1.318339  1.311666 0.070224 -0.484553
26  1.789779 -0.000013 -0.000008  -0.012764 0.003263 -0.241320
27  1.207000 -0.000005 0.000003  -0.001845 -0.048001 -0.530550
28  3.374499 -2.124248 0.498292  -0.019299 -3.117648 0.762496
29  5.740844 0.000043 -0.000003  -0.084220 0.345996 -0.031245
30  11.481705 0.000091 -0.000008  0.000148 -0.000000 0.000009
31  11.692546 -0.000025 -0.000002  0.000005 0.000000 -0.029505
32  5.559999 -0.000008 -0.000001  -0.149006 0.000000 -0.000005
33  1.500003 -0.000005 -0.000002  -0.286066 -0.000000 -0.000003
34  5.166965 0.000002 0.000004  0.000000 -0.000001 -0.000000
35  2.033334 1.000728 1.937667  -0.585284 -1.680788 -0.849597
36  6.028159 -0.000043 0.000019  0.020567 -0.092622 -1.342211
37  11.692537 -0.000022 0.000011  0.055629 -0.074211 -0.262626
38  11.481678 0.000046 -0.000030  -0.121673 0.138547 0.933067
39  2.676088 -1.712446 0.000005  1.570792 -0.000002 1.570605
40  3.859715 -0.142412 -1.191967  -0.502908 -0.073438 -1.170672
41  1.312561 0.000007 -0.000003  -0.000494 -0.015908 0.411325
42  0.729362 0.000016 -0.000002  0.029003 -0.166246 0.037508
43  3.942327 0.046769 -0.431432  -0.168626 -0.008643 -1.090739
44  1.539104 0.000005 -0.000001  -0.004696 -0.004342 0.255841
45  1.196322 -0.000010 0.000003  -0.000984 0.001043 0.339695
46  3.883695 -0.046779 0.431455  0.078238 -0.001171 -0.974074
47  1.719572 -0.000011 0.000015  -0.012849 0.007630 0.344932
48  1.209186 -0.000005 0.000002  -0.012620 0.217447 0.231751
49  0.806051 -0.348929 1.321261  -1.310532 -0.071730 -0.491304
50  1.789786 -0.000018 0.000005  0.012455 -0.006712 -0.239171
51  1.206998 -0.000006 -0.000004  0.004563 -0.000818 -0.523714
52  3.859863 -0.137956 1.332479  0.347132 0.390268 -0.908714
53  1.626590 0.278289 0.482905  -0.136599 -0.249668 0.524736
54  1.099651 -0.000012 0.000010  -0.029245 0.224755 0.102053
55  5.740859 0.000018 0.000004  0.000699 0.000000 0.000005
56  11.481709 0.000044 0.000003  0.001275 -0.000000 -0.000005
57  11.692560 -0.000011 -0.000004  -0.000005 -0.000000 -0.029500
58  5.560009 -0.000007 -0.000001  0.000001 -0.000000 -0.000000
59  1.500003 0.000002 0.000000  -0.000001 -0.000000 0.000001
60  5.166967 -0.000005 0.000003  0.000000 -0.000001 -0.000000
61  -3.890452 -0.000014 0.000008  -1.497869 0.210372 -1.632705
62  17.848175 -0.000022 -0.000002  -0.970952 -0.055322 0.092702
63  16.751202 0.839695 0.823286  0.532585 0.809032 -0.898981
64  6.879454 0.000007 -0.000003  -0.081332 -0.002949 -0.584374
65  3.890465 -0.000004 0.000003  -1.654209 0.228659 -1.521604
66  17.848194 -0.000137 -0.000007  -0.008564 0.000603 0.018532
67  16.525249 0.000044 -0.000002  -0.014068 0.069313 -1.072796
68  6.879451 -0.000014 0.000000  -0.007297 -0.002947 -0.584373
69  -0.044717 2.313925 4.661498  0.157830 0.000127 0.000047
time 1
0  0.568013 1.944361 37.688713  1.424761 -0.000242 -0.002152
1  0.000013 3.345130 -2.981901  1.570343 -0.009279 1.569474
2  4.018332 0.000006 -0.000001  0.002908 0.003529 0.288577
3  3.518570 0.000033 -0.000001  0.024721 -0.022113 0.020998
4  8.942613 -0.000002 -0.000026  -0.021374 -0.003504 0.002440
5  3.307276 -0.000046 0.000010  -3.138022 0.007881 0.273473
6  3.593699 -0.000047 -0.000014  0.081370 -0.003764 0.333240
7  2.000658 -2.999559 0.000000  -1.570796 0.000000 -1.326228
8  2.033354 1.000747 -1.937601  1.453053 1.748174 0.089184
9  6.028123 0.000051 0.000016  -0.012368 0.164889 -1.123823
10  11.692551 -0.000019 0.000009  0.129884 0.065231 -0.245233
11  11.481752 0.000082 0.000032  0.063267 0.094665 0.770621
12  2.676086 -1.712448 -0.000008  -1.570793 -0.000003 -1.570908
13  3.859681 -0.132575 1.193099  0.503022 0.067561 -1.130283
14  1.312554 -0.000010 -0.000007  0.004806 0.013666 0.415622
15  0.729356 0.000004 -0.000001  -0.022876 0.093085 -0.099404
16  3.942293 0.050326 0.431030  0.169308 0.006053 -1.068479
17  1.539099 -0.000008 -0.000007  0.005609 0.003896 0.253357
18  1.196321 -0.000003 -0.000001  0.004970 -0.034234 0.231222
19  3.883658 -0.050336 -0.431055  -0.076428 -0.003188 -0.962144
20  1.719577 -0.000004 0.000001  0.012923 -0.003948 0.345673
21  1.209178 -0.000005 -0.000002  0.020983 -0.219900 0.151141
22  3.859827 -0.148949 -1.331297  -0.350496 -0.068854 -0.853899
23  1.719429 0.000000 0.000005  0.008489 -0.004447 0.344525
24  1.099663 0.000003 -0.000001  0.031769 -0.218332 0.070530
25  0.806014 -0.359843 -1.318336  1.311739 0.072301 -0.484560
26  1.789773 -0.000017 -0.000006  -0.012833 0.003271 -0.241341
27  1.207004 -0.000005 0.000002  -0.001866 -0.048011 -0.530537
28  3.374501 -2.124248 0.498292  -0.019299 -3.117648 0.762496
29  5.740845 0.000042 -0.000003  -0.084220 0.345996 -0.031245
30  11.481708 0.000091 -0.000006  0.000148 -0.000000 0.000009
31  11.692566 -0.000017 -0.000003  0.000005 0.000000 -0.029505
32  5.560003 -0.000002 0.000000  -0.149006 0.000000 -0.000005
33  1.500010 -0.000006 -0.000003  -0.286066 -0.000000 -0.000003
34  5.166961 0.000002 0.000003  0.000000 -0.000001 0.000000
35  2.033350 1.000724 1.937673  -2.184557 -1.703483 0.648623
36  6.028152 -0.000008 0.000013  0.152897 -0.055641 -1.205617
37  11.692569 -0.000038 0.000007  0.069398 -0.086774 -0.325246
38  11.481676 0.000040 -0.000028  -0.151042 0.080368 0.900528
39  2.676082 -1.712448 0.000007  1.570792 -0.000002 1.570605
40  3.859711 -0.142420 -1.191963  -0.503076 -0.076717 -1.170769
41  1.312561 0.000010 -0.000001  -0.000901 -0.015982 0.411435
42  0.729363 0.000007 -0.000002  0.028917 -0.166259 0.037759
43  3.942328 0.046764 -0.431437  -0.168741 -0.011419 -1.090861
44  1.539092 0.000007 -0.000003  -0.004997 -0.004379 0.256045
45  1.196317 -0.000001 0.000001  -0.001062 0.001072 0.339862
46  3.883691 -0.046784 0.431451  0.078171 -0.003665 -0.974265
47  1.719581 -0.000013 0.000017  -0.013134 0.007628 0.345176
48  1.209186 -0.000001 0.000007  -0.012673 0.217533 0.231984
49  0.806039 -0.348929 1.321269  -1.310612 -0.073705 -0.491214
50  1.789777 -0.000015 -0.000004  0.012537 -0.006777 -0.239887
51  1.206989 -0.000013 -0.000001  0.004584 -0.000779 -0.523134
52  3.859862 -0.137962 1.332474  0.347199 0.387697 -0.908929
53  1.626592 0.278284 0.482902  -0.136954 -0.249607 0.525118
54  1.099664 -0.000010 0.000010  -0.029307 0.224880 0.102294
55  5.740849 0.000018 0.000005  0.000699 0.000000 0.000005
56  11.481703 0.000045 0.000006  0.001276 0.000000 -0.000005
57  11.692565 -0.000013 -0.000007  -0.000005 -0.000000 -0.029500
58  5.560008 -0.000011 0.000001  0.000001 -0.000000 0.000000
59  1.500005 0.000001 0.000000  -0.000001 -0.000000 0.000001
60  5.166966 -0.000001 0.000002  0.000000 -0.000001 0.000000
61  -3.890452 -0.000015 0.000006  -1.501850 0.136593 -1.652204
62  17.848173 -0.000021 -0.000003  -0.958260 -0.047161 0.133973
63  16.751204 0.839697 0.823286  0.623325 0.766217 -0.841771
64  6.879452 0.000007 -0.000001  -0.081332 -0.002949 -0.584374
65  3.890465 -0.000011 0.000002  -1.681560 0.237382 -1.499773
66  17.848179 -0.000136 -0.000008  -0.014011 0.001572 0.033608
67  16.525257 0.000051 -0.000003  -0.049040 0.102973 -1.073189
68  6.879452 -0.000014 -0.000000  -0.007297 -0.002947 -0.584372
69  -0.044717 2.313928 4.661500  0.146036 0.002164 0.000074
time 2
0  0.573615 2.216612 36.524834  1.330619 -0.000562 -0.002240
1  0.000015 3.345140 -2.981901  1.569450 -0.115733 1.567206
2  4.018326 0.000005 -0.000000  0.002909 0.003529 0.284609
3  3.518570 0.000030 -0.000001  0.024658 -0.022062 0.038645
4  8.942621 -0.000001 -0.000024  -0.022357 -0.003650 0.139312
5  3.307281 -0.000051 0.000011  -3.127961 0.021405 0.316325
6  3.593687 -0.000050 -0.000015  0.082720 0.008464 0.538811
7  2.000664 -2.999558 0.000001  -1.570796 -0.000000 -1.326228
8  2.033356 1.000740 -1.937598  1.974417 1.688350 0.493504
9  6.028132 0.000047 0.000008  0.003300 0.010968 -1.068306
10  11.692528 -0.000007 0.000007  0.075667 0.105306 -0.493288
11  11.481749 0.000089 0.000025  0.070913 0.218197 0.866682
12  2.676086 -1.712444 -0.000007  -1.570793 -0.000003 -1.570908
13  3.859677 -0.132565 1.193094  0.503395 0.076041 -1.130660
14  1.312563 -0.000013 -0.000009  0.005709 0.013612 0.416420
15  0.729359 0.000003 -0.000001  -0.022771 0.093165 -0.100180
16  3.942294 0.050327 0.431032  0.169574 0.013116 -1.068642
17  1.539091 -0.000007 -0.000008  0.006313 0.004001 0.253336
18  1.196327 -0.000001 -0.000002  0.005141 -0.034314 0.231232
19  3.883650 -0.050328 -0.431058  -0.076277 0.003167 -0.962232
20  1.719571 0.000001 -0.000003  0.013634 -0.003908 0.345576
21  1.209183 -0.000003 -0.000003  0.021104 -0.219915 0.151207
22  3.859823 -0.148942 -1.331293  -0.350317 -0.062123 -0.853978
23  1.719429 0.000004 0.000006  0.009177 -0.004411 0.344492
24  1.099666 -0.000000 0.000002  0.031890 -0.218349 0.070545
25  0.806011 -0.359839 -1.318343  1.311947 0.078083 -0.484520
26  1.789773 -0.000017 -0.000010  -0.013030 0.003292 -0.241400
27  1.206998 -0.000005 -0.000001  -0.001925 -0.048040 -0.530503
28  3.374497 -2.124245 0.498294  -0.019299 -3.117648 0.762496
29  5.740847 0.000045 -0.000004  -0.084220 0.345996 -0.031245
30  11.481708 0.000094 -0.000008  0.000148 -0.000000 0.000009
31  11.692552 -0.000016 -0.000004  0.000005 0.000000 -0.029505
32  5.559995 -0.000003 0.000001  -0.149006 -0.000000 -0.000005
33  1.500005 -0.000001 -0.000004  -0.286066 -0.000000 -0.000003
34  5.166965 0.000004 0.000004  0.000000 -0.000001 -0.000000
35  2.033327 1.000734 1.937673  0.208622 -1.434778 -1.865093
36  6.028157 -0.000064 0.000015  0.151216 0.098785 -1.150899
37  11.692548 -0.000025 0.000016  0.119298 -0.121269 -0.530616
38  11.481677 0.000041 -0.000036  -0.163448 -0.033411 0.996087
39  2.676085 -1.712453 0.000012  1.570792 -0.000002 1.570605
40  3.859717 -0.142407 -1.191966  -0.503550 -0.085655 -1.171564
41  1.312572 0.000014 0.000000  -0.001936 -0.016167 0.412201
42  0.729358 0.000006 -0.000005  0.028713 -0.166324 0.038821
43  3.942331 0.046764 -0.431429  -0.169070 -0.018907 -1.091601
44  1.539097 0.000002 -0.000002  -0.005759 -0.004408 0.256919
45  1.196309 0.000002 0.000003  -0.001244 0.001183 0.340755
46  3.883693 -0.046780 0.431453  0.077968 -0.010365 -0.975049
47  1.719579 -0.000016 0.000016  -0.013844 0.007701 0.346063
48  1.209180 -0.000002 0.000006  -0.012793 0.217884 0.232840
49  0.806046 -0.348924 1.321266  -1.310803 -0.079400 -0.491001
50  1.789785 -0.000015 0.000003  0.012722 -0.006789 -0.240159
51  1.206998 -0.000005 -0.000000  0.004637 -0.000761 -0.523549
52  3.859863 -0.137960 1.332478  0.347350 0.380852 -0.909775
53  1.626591 0.278290 0.482904  -0.137917 -0.249331 0.526383
54  1.099665 -0.000014 0.000014  -0.029472 0.225328 0.103157
55  5.740851 0.000019 -0.000002  0.000699 0.000000 0.000005
56  11.481699 0.000042 0.000003  0.001276 -0.000000 -0.000005
57  11.692566 -0.000014 -0.000002  -0.000005 -0.000000 -0.029500
58  5.560006 -0.000010 0.000004  0.000001 -0.000000 -0.000000
59  1.500013 -0.000003 0.000001  -0.000001 0.000000 0.000001
60  5.166966 -0.000011 0.000005  0.000000 -0.000001 -0.000000
61  -3.890452 0.000001 0.000007  -1.499149 0.181682 -1.708568
62  17.848177 -0.000021 -0.000003  -0.911913 -0.103514 0.192028
63  16.751204 0.839696 0.823286  0.728380 0.672669 -0.762469
64  6.879453 0.000007 -0.000003  -0.081333 -0.002949 -0.584373
65  3.890466 -0.000014 0.000002  -1.760207 -0.095986 -1.340293
66  17.848183 -0.000131 -0.000014  0.055877 0.069066 0.940342
67  16.525251 0.000052 0.000003  -0.073178 0.146392 -1.425050
68  6.879452 -0.000014 0.000001  -0.007297 -0.002947 -0.584374
69  -0.044717 2.313944 4.661496  0.240178 0.002310 -0.000013
time 3
0  0.571692 2.191582 35.130463  1.198768 -0.001105 -0.002898
1  0.000013 3.345112 -2.981904  1.568446 -0.218306 1.564713
2  4.018332 0.000006 -0.000000  0.002910 0.003530 0.278759
3  3.518564 0.000034 -0.000001  0.024568 -0.021985 0.064677
4  8.942628 0.000002 -0.000026  -0.023597 -0.003595 0.283792
5  3.307266 -0.000051 0.000007  -3.111072 0.035365 0.371506
6  3.593688 -0.000049 -0.000012  0.087380 0.025304 0.728977
7  2.000666 -2.999562 0.000000  -1.570796 -0.000000 -1.326228
8  2.033336 1.000755 -1.937603  0.574352 1.451291 -0.955421
9  6.028139 0.000049 0.000013  0.080484 -0.272441 -1.029232
10  11.692547 -0.000027 0.000012  -0.007274 0.139044 -0.831029
11  11.481757 0.000084 0.000031  -0.014211 0.456782 0.916693
12  2.676084 -1.712443 -0.000009  -1.570793 -0.000003 -1.570908
13  3.859674 -0.132570 1.193093  0.503953 0.088451 -1.131167
14  1.312567 -0.000004 -0.000011  0.007020 0.013706 0.416236
15  0.729364 -0.000002 -0.000000  -0.022521 0.093132 -0.099985
16  3.942288 0.050327 0.431028  0.169969 0.023612 -1.068998
17  1.539083 -0.000014 -0.000006  0.007357 0.004155 0.253320
18  1.196319 -0.000005 -0.000005  0.005395 -0.034425 0.231170
19  3.883654 -0.050331 -0.431055  -0.076051 0.012623 -0.962340
20  1.719577 0.000002 -0.000000  0.014692 -0.003845 0.345438
21  1.209181 -0.000005 -0.000002  0.021286 -0.219942 0.151300
22  3.859814 -0.148941 -1.331291  -0.350058 -0.052103 -0.853993
23  1.719426 0.000009 0.000002  0.010199 -0.004364 0.344428
24  1.099658 -0.000007 -0.000008  0.032068 -0.218364 0.070580
25  0.806009 -0.359842 -1.318342  1.312285 0.086935 -0.484304
26  1.789783 -0.000022 -0.000013  -0.013351 0.003326 -0.241486
27  1.207003 -0.000005 0.000003  -0.002021 -0.048086 -0.530455
28  3.374495 -2.124251 0.498292  -0.019299 -3.117648 0.762496
29  5.740845 0.000045 -0.000002  -0.084220 0.345996 -0.031245
30  11.481706 0.000090 -0.000000  0.000148 0.000000 0.000009
31  11.692556 -0.000016 -0.000005  0.000005 0.000000 -0.029505
32  5.560009 -0.000002 -0.000003  -0.149005 -0.000000 -0.000005
33  1.500003 0.000005 -0.000005  -0.286066 -0.000000 -0.000003
34  5.166965 0.000012 0.000004  0.000000 -0.000001 -0.000000
35  2.033326 1.000731 1.937667  -0.755162 -1.350394 -0.958825
36  6.028157 -0.000038 0.000018  0.085111 0.383996 -1.108405
37  11.692547 -0.000011 0.000023  0.195832 -0.150239 -0.810272
38  11.481680 0.000039 -0.000036  -0.117979 -0.273276 1.072658
39  2.676086 -1.712442 0.000010  1.570792 -0.000002 1.570605
40  3.859713 -0.142417 -1.191959  -0.504172 -0.098986 -1.172152
41  1.312558 0.000004 -0.000005  -0.003519 -0.016061 0.412639
42  0.729364 0.000005 -0.000009  0.028441 -0.166403 0.038001
43  3.942326 0.046762 -0.431435  -0.169518 -0.030138 -1.091843
44  1.539101 0.000008 0.000001  -0.006983 -0.004559 0.256774
45  1.196319 -0.000006 0.000002  -0.001557 0.001315 0.340323
46  3.883692 -0.046782 0.431450  0.077700 -0.020500 -0.974964
47  1.719577 -0.000007 0.000015  -0.015056 0.007549 0.345731
48  1.209184 -0.000005 0.000006  -0.013027 0.217904 0.232615
49  0.806052 -0.348936 1.321259  -1.311204 -0.089150 -0.490770
50  1.789787 -0.000018 0.000009  0.013026 -0.006805 -0.240096
51  1.206990 -0.000009 -0.000005  0.004718 -0.000720 -0.523265
52  3.859875 -0.137959 1.332473  0.347692 0.370061 -0.909384
53  1.626593 0.278282 0.482898  -0.138991 -0.249537 0.526110
54  1.099664 -0.000001 0.000011  -0.029689 0.225337 0.102776
55  5.740856 0.000019 0.000003  0.000699 0.000000 0.000005
56  11.481703 0.000048 0.000002  0.001276 -0.000000 -0.000005
57  11.692564 -0.000007 -0.000003  -0.000005 -0.000000 -0.029500
58  5.560006 -0.000005 0.000002  0.000001 -0.000000 0.000000
59  1.500005 -0.000002 0.000010  -0.000001 0.000000 0.000001
60  5.166967 -0.000006 0.000001  0.000000 -0.000001 -0.000000
61  -3.890451 -0.000013 0.000008  -1.509710 0.222300 -1.806321
62  17.848185 -0.000017 -0.000004  -0.848485 -0.145277 0.321942
63  16.751196 0.839695 0.823287  0.876624 0.502122 -0.695455
64  6.879453 0.000007 -0.000003  -0.081333 -0.002949 -0.584373
65  3.890466 -0.000013 0.000002  -1.867104 -0.152964 -1.162808
66  17.848179 -0.000149 -0.000013  0.126997 0.066567 1.367301
67  16.525248 0.000051 -0.000002  -0.113919 0.220033 -1.442091
68  6.879452 -0.000014 -0.000000  -0.007297 -0.002947 -0.584373
69  -0.044717 2.313931 4.661498  0.372030 0.003102 0.000024
time 4
0  0.548902 2.021339 33.800400  1.061508 -0.000867 -0.002140
1  0.000014 3.345136 -2.981901  1.567953 -0.294245 1.562278
2  4.018327 0.000006 -0.000000  0.002911 0.003530 0.271655
3  3.518563 0.000030 -0.000001  0.024456 -0.021884 0.096323
4  8.942613 -0.000002 -0.000025  -0.024582 -0.003821 0.408612
5  3.307261 -0.000037 0.000009  -3.085089 0.047667 0.432604
6  3.593685 -0.000041 -0.000014  0.089312 0.047475 0.877294
7  2.000659 -2.999559 0.000000  -1.570796 0.000000 -1.326228
8  2.033338 1.000749 -1.937597  1.231334 1.343040 -0.327891
9  6.028144 0.000051 0.000008  0.215019 -0.618822 -0.885835
10  11.692539 -0.000019 0.000012  -0.066210 0.149526 -1.077770
11  11.481749 0.000090 0.000031  -0.342963 0.590590 0.655221
12  2.676091 -1.712454 -0.000012  -1.570793 -0.000003 -1.570908
13  3.859678 -0.132567 1.193096  0.504598 0.103480 -1.132159
14  1.312574 -0.000016 -0.000007  0.008589 0.013819 0.416029
15  0.729363 0.000007 0.000002  -0.022222 0.093093 -0.099766
16  3.942294 0.050322 0.431031  0.170442 0.036298 -1.069591
17  1.539096 -0.000008 -0.000007  0.008615 0.004347 0.253348
18  1.196319 -0.000006 -0.000000  0.005702 -0.034542 0.230814
19  3.883658 -0.050328 -0.431053  -0.075785 0.023952 -0.962767
20  1.719571 -0.000001 -0.000003  0.015970 -0.003345 0.346294
21  1.209170 -0.000004 -0.000001  0.021620 -0.220481 0.150520
22  3.859825 -0.148944 -1.331294  -0.349751 -0.039956 -0.853846
23  1.719427 0.000004 0.000002  0.011434 -0.004308 0.344344
24  1.099660 -0.000004 -0.000004  0.032282 -0.218380 0.070629
25  0.806012 -0.359837 -1.318340  1.312741 0.098071 -0.483784
26  1.789777 -0.000011 -0.000012  -0.013781 0.003369 -0.241601
27  1.207004 -0.000008 -0.000002  -0.002150 -0.048145 -0.530376
28  3.374504 -2.124253 0.498292  -0.019299 -3.117648 0.762497
29  5.740851 0.000048 -0.000001  -0.084220 0.345996 -0.031245
30  11.481710 0.000092 -0.000006  0.000148 0.000000 0.000009
31  11.692556 -0.000029 -0.000005  0.000005 0.000000 -0.029505
32  5.560007 -0.000003 -0.000002  -0.149005 0.000000 -0.000005
33  1.500008 -0.000003 -0.000004  -0.286066 -0.000000 -0.000003
34  5.166961 -0.000004 -0.000001  0.000000 -0.000001 0.000000
35  2.033328 1.000728 1.937673  -1.209788 -1.253786 -0.540003
36  6.028162 -0.000043 0.000015  -0.043411 0.731766 -0.973666
37  11.692531 -0.000021 0.000029  0.248036 -0.157236 -0.990604
38  11.481680 0.000037 -0.000023  0.110687 -0.504303 0.879197
39  2.676083 -1.712453 0.000004  1.570792 -0.000002 1.570605
40  3.859721 -0.142416 -1.191969  -0.504912 -0.114934 -1.173188
41  1.312567 -0.000001 -0.000003  -0.005388 -0.016262 0.412164
42  0.729360 0.000007 -0.000001  0.027992 -0.166241 0.038381
43  3.942316 0.046760 -0.431432  -0.170057 -0.043709 -1.092487
44  1.539092 -0.000002 0.000000  -0.008445 -0.004738 0.256785
45  1.196329 -0.000004 0.000001  -0.001928 0.001487 0.340039
46  3.883682 -0.046786 0.431453  0.077369 -0.032762 -0.974997
47  1.719581 -0.000010 0.000014  -0.016501 0.007406 0.345571
48  1.209177 -0.000001 0.000008  -0.013302 0.217997 0.232581
49  0.806039 -0.348927 1.321257  -1.311735 -0.101241 -0.490167
50  1.789792 -0.000016 0.000003  0.013439 -0.006833 -0.240104
51  1.206992 -0.000011 -0.000001  0.004832 -0.000668 -0.523048
52  3.859867 -0.137962 1.332476  0.348094 0.357069 -0.908966
53  1.626592 0.278283 0.482903  -0.140342 -0.249683 0.526109
54  1.099674 0.000003 0.000013  -0.029955 0.225439 0.102580
55  5.740851 0.000023 0.000005  0.000699 0.000000 0.000005
56  11.481703 0.000037 0.000004  0.001275 0.000000 -0.000005
57  11.692556 -0.000006 -0.000001  -0.000005 -0.000000 -0.029500
58  5.559997 -0.000002 0.000007  0.000001 -0.000000 -0.000000
59  1.500000 -0.000008 0.000005  -0.000001 -0.000000 0.000001
60  5.166969 -0.000005 0.000002  0.000000 -0.000001 -0.000000
61  -3.890451 -0.000009 0.000012  -1.537699 0.163128 -2.021175
62  17.848177 -0.000018 -0.000000  -0.855457 -0.307156 0.740244
63  16.751200 0.839695 0.823286  0.912454 0.358517 -0.711803
64  6.879453 0.000006 -0.000004  -0.081333 -0.002949 -0.584373
65  3.890465 -0.000013 0.000002  -1.915483 -0.151760 -1.002859
66  17.848175 -0.000137 -0.000004  0.147144 0.039213 1.668367
67  16.525238 0.000050 -0.000003  -0.178749 0.290495 -1.330475
68  6.879450 -0.000014 -0.000000  -0.007297 -0.002947 -0.584374
69  -0.044717 2.313944 4.661500  0.509290 0.002291 0.000286
time 5
0  0.500896 1.560883 32.940323  0.961761 0.001452 -0.000431
1  0.000014 3.345138 -2.981900  1.569367 -0.329002 1.561895
2  4.018335 0.000005 -0.000000  0.002913 0.003531 0.263922
3  3.518570 0.000034 -0.000001  0.024344 -0.021776 0.130780
4  8.942614 0.000000 -0.000025  -0.025695 -0.005189 0.475793
5  3.307270 -0.000046 0.000005  -3.047949 0.056311 0.493959
6  3.593692 -0.000038 -0.000014  0.080707 0.076567 0.966052
7  2.000669 -2.999559 0.000000  -1.570796 0.000000 -1.326228
8  2.033352 1.000748 -1.937601  1.433067 1.338934 -0.158578
9  6.028136 0.000052 0.000011  0.221099 -0.899010 -0.536691
10  11.692535 -0.000022 0.000009  -0.061124 0.154181 -1.108356
11  11.481739 0.000072 0.000031  -0.709615 0.490751 0.218931
12  2.676074 -1.712443 -0.000008  -1.570793 -0.000003 -1.570908
13  3.859679 -0.132575 1.193095  0.505237 0.119439 -1.133706
14  1.312564 -0.000009 -0.000003  0.010228 0.013937 0.415828
15  0.729361 0.000003 0.000002  -0.021910 0.093054 -0.099551
16  3.942294 0.050323 0.431025  0.170937 0.049727 -1.070452
17  1.539085 -0.000010 -0.000007  0.009941 0.004583 0.253368
18  1.196326 0.000006 -0.000005  0.006028 -0.034674 0.230315
19  3.883656 -0.050336 -0.431055  -0.075492 0.036120 -0.962821
20  1.719575 -0.000009 0.000003  0.017328 -0.003260 0.346143
21  1.209178 -0.000003 0.000002  0.021856 -0.220524 0.150620
22  3.859824 -0.148942 -1.331296  -0.349430 -0.027053 -0.853472
23  1.719427 0.000005 0.000003  0.012738 -0.004246 0.344260
24  1.099658 -0.000011 -0.000010  0.032510 -0.218399 0.070677
25  0.806002 -0.359840 -1.318337  1.313292 0.110423 -0.482898
26  1.789780 -0.000010 -0.000014  -0.014292 0.003420 -0.241728
27  1.206999 -0.000009 0.000006  -0.002303 -0.048214 -0.530291
28  3.374498 -2.124249 0.498292  -0.019299 -3.117648 0.762496
29  5.740855 0.000050 -0.000005  -0.084220 0.345996 -0.031245
30  11.481712 0.000089 -0.000010  0.000148 -0.000000 0.000009
31  11.692556 -0.000026 0.000001  0.000005 0.000000 -0.029505
32  5.560007 -0.000012 0.000002  -0.149005 -0.000000 -0.000005
33  1.500002 -0.000007 0.000000  -0.286066 -0.000000 -0.000003
34  5.166963 -0.000001 0.000001  0.000000 -0.000001 0.000000
35  2.033338 1.000724 1.937673  -1.380242 -1.248958 -0.401518
36  6.028154 -0.000051 0.000011  -0.035318 1.010942 -0.628579
37  11.692530 -0.000024 0.000020  0.238869 -0.156689 -0.959192
38  11.481680 0.000038 -0.000019  0.454405 -0.586196 0.428041
39  2.676086 -1.712444 0.000005  1.570792 -0.000002 1.570605
40  3.859710 -0.142413 -1.191966  -0.505623 -0.132125 -1.175230
41  1.312566 0.000001 -0.000007  -0.007372 -0.016227 0.412990
42  0.729355 0.000010 -0.000001  0.027645 -0.166392 0.038025
43  3.942329 0.046765 -0.431436  -0.170622 -0.058120 -1.093659
44  1.539093 -0.000005 -0.000007  -0.009985 -0.004945 0.257057
45  1.196317 -0.000011 0.000000  -0.002321 0.001677 0.340057
46  3.883693 -0.046777 0.431451  0.077008 -0.045791 -0.975190
47  1.719576 -0.000017 0.000015  -0.018022 0.007290 0.345677
48  1.209173 -0.000003 0.000007  -0.013587 0.218165 0.232820
49  0.806044 -0.348925 1.321264  -1.312360 -0.114405 -0.489095
50  1.789787 -0.000015 0.000009  0.013939 -0.006875 -0.240286
51  1.207008 -0.000003 -0.000003  0.004975 -0.000616 -0.523140
52  3.859858 -0.137959 1.332476  0.348504 0.343330 -0.908570
53  1.626591 0.278279 0.482902  -0.141854 -0.249735 0.526506
54  1.099662 -0.000004 0.000010  -0.030245 0.225652 0.102684
55  5.740851 0.000012 0.000004  0.000699 -0.000000 0.000005
56  11.481710 0.000040 0.000002  0.001276 -0.000000 -0.000005
57  11.692564 -0.000004 -0.000005  -0.000005 -0.000000 -0.029500
58  5.560004 -0.000006 0.000002  0.000001 -0.000000 0.000000
59  1.500000 0.000000 -0.000006  -0.000001 -0.000000 0.000001
60  5.166969 0.000000 0.000004  0.000000 -0.000001 -0.000000
61  -3.890452 -0.000007 0.000003  -1.583350 0.069831 -2.241649
62  17.848171 -0.000014 -0.000005  -0.938194 -0.441452 1.206845
63  16.751202 0.839697 0.823287  0.943991 0.197835 -0.671524
64  6.879453 0.000006 -0.000003  -0.081333 -0.002949 -0.584373
65  3.890468 -0.000005 0.000004  -1.898015 -0.144753 -0.869220
66  17.848188 -0.000124 -0.000014  0.121356 0.025158 1.891967
67  16.525251 0.000054 -0.000004  -0.249167 0.383975 -1.157580
68  6.879452 -0.000014 -0.000000  -0.007297 -0.002947 -0.584374
69  -0.044717 2.313935 4.661502  0.609034 -0.000477 0.001438
time 6
0  0.518693 1.577667 32.654991  0.927326 0.000768 0.001868
1  0.000015 3.345130 -2.981902  1.570645 -0.344386 1.561159
2  4.018327 0.000006 -0.000000  0.002914 0.003532 0.256191
3  3.518567 0.000033 -0.000001  0.024230 -0.021658 0.165231
4  8.942621 -0.000002 -0.000025  -0.025663 -0.005643 0.502314
5  3.307268 -0.000038 0.000008  -3.001173 0.058156 0.551691
6  3.593685 -0.000050 -0.000014  0.065493 0.117110 1.055895
7  2.000665 -2.999559 0.000000  -1.570796 -0.000000 -1.326228
8  2.033338 1.000754 -1.937601  0.923450 1.389680 -0.745387
9  6.028137 0.000049 0.000015  -0.100372 -0.979289 0.009062
10  11.692546 -0.000014 0.000005  0.016674 0.145852 -0.886303
11  11.481741 0.000082 0.000036  -0.959424 0.445516 -0.257601
12  2.676083 -1.712434 -0.000003  -1.570793 -0.000003 -1.570908
13  3.859676 -0.132567 1.193093  0.505786 0.134593 -1.135716
14  1.312563 -0.000017 -0.000006  0.011753 0.014047 0.415647
15  0.729367 0.000004 -0.000002  -0.021618 0.093018 -0.099356
16  3.942299 0.050338 0.431032  0.171386 0.062514 -1.071730
17  1.539089 0.000000 -0.000010  0.011187 0.004775 0.253227
18  1.196316 -0.000006 -0.000005  0.006327 -0.034854 0.230819
19  3.883656 -0.050326 -0.431049  -0.075206 0.047658 -0.962816
20  1.719565 -0.000005 -0.000000  0.018613 -0.003171 0.346013
21  1.209176 -0.000006 -0.000001  0.022080 -0.220572 0.150705
22  3.859822 -0.148941 -1.331292  -0.349124 -0.014807 -0.852880
23  1.719439 0.000004 0.000007  0.013968 -0.004184 0.344187
24  1.099668 -0.000005 -0.000002  0.032726 -0.218421 0.070717
25  0.806005 -0.359836 -1.318335  1.313892 0.122717 -0.481694
26  1.789782 -0.000010 -0.000015  -0.014836 0.003474 -0.241834
27  1.207002 -0.000004 0.000000  -0.002464 -0.048289 -0.530230
28  3.374499 -2.124245 0.498299  -0.019299 -3.117648 0.762496
29  5.740846 0.000052 -0.000005  -0.084220 0.345996 -0.031245
30  11.481703 0.000107 -0.000005  0.000148 -0.000000 0.000009
31  11.692560 -0.000017 -0.000001  0.000005 0.000000 -0.029505
32  5.560015 -0.000001 0.000001  -0.149006 0.000000 -0.000005
33  1.500006 0.000005 -0.000004  -0.286066 -0.000000 -0.000003
34  5.166965 0.000016 0.000006  0.000000 -0.000001 0.000000
35  2.033331 1.000743 1.937670  -1.056025 -1.289338 -0.802270
36  6.028159 -0.000056 0.000017  0.351053 1.071822 -0.017777
37  11.692533 -0.000026 0.000010  0.155406 -0.137991 -0.666023
38  11.481675 0.000048 -0.000024  0.734311 -0.693688 -0.126402
39  2.676091 -1.712441 0.000003  1.570792 -0.000002 1.570605
40  3.859716 -0.142406 -1.191962  -0.506218 -0.148103 -1.176961
41  1.312572 0.000011 0.000007  -0.009179 -0.016335 0.411633
42  0.729351 0.000008 -0.000020  0.027166 -0.166078 0.037653
43  3.942337 0.046770 -0.431431  -0.171118 -0.071752 -1.094440
44  1.539095 0.000013 0.000003  -0.011460 -0.005180 0.256287
45  1.196318 -0.000003 0.000005  -0.002701 0.001860 0.338808
46  3.883692 -0.046776 0.431453  0.076670 -0.058183 -0.974446
47  1.719573 -0.000013 0.000015  -0.019534 0.007031 0.344541
48  1.209179 -0.000002 0.000008  -0.013883 0.217976 0.231966
49  0.806046 -0.348937 1.321267  -1.313098 -0.128364 -0.487947
50  1.789783 -0.000025 0.000000  0.014457 -0.006891 -0.239889
51  1.207000 -0.000011 0.000000  0.005107 -0.000537 -0.522233
52  3.859863 -0.137962 1.332475  0.348951 0.329944 -0.906846
53  1.626591 0.278275 0.482905  -0.142968 -0.250206 0.525255
54  1.099667 -0.000016 0.000015  -0.030490 0.225389 0.101542
55  5.740847 0.000019 0.000005  0.000699 0.000000 0.000005
56  11.481695 0.000052 0.000004  0.001275 -0.000000 -0.000005
57  11.692553 -0.000011 -0.000007  -0.000005 -0.000000 -0.029500
58  5.559998 -0.000010 0.000000  0.000001 -0.000000 0.000000
59  1.500004 0.000004 0.000003  -0.000001 -0.000000 0.000001
60  5.166965 -0.000019 0.000003  0.000000 -0.000001 -0.000000
61  -3.890452 -0.000007 0.000005  -1.606480 -0.035215 -2.384431
62  17.848175 -0.000020 -0.000002  -1.006801 -0.496768 1.511979
63  16.751200 0.839700 0.823287  1.050246 0.016417 -0.532829
64  6.879454 0.000006 -0.000003  -0.081335 -0.002949 -0.584373
65  3.890466 -0.000004 0.000007  -1.896111 -0.166200 -0.758711
66  17.848186 -0.000133 -0.000010  0.070740 0.025370 2.057184
67  16.525253 0.000050 -0.000001  -0.261591 0.471983 -0.931112
68  6.879454 -0.000014 0.000000  -0.007297 -0.002947 -0.584373
69  -0.044717 2.313937 4.661497  0.643471 -0.001955 -0.000506
time 7
0  0.527285 1.538316 32.520493  0.912261 0.001167 0.004579
1  0.000015 3.345135 -2.981904  1.571745 -0.342222 1.561549
2  4.018325 0.000007 -0.000000  0.002915 0.003532 0.249087
3  3.518569 0.000030 -0.000001  0.024130 -0.021549 0.196873
4  8.942625 0.000002 -0.000024  -0.025964 -0.006195 0.513193
5  3.307268 -0.000044 0.000009  -2.951061 0.054751 0.602299
6  3.593697 -0.000048 -0.000014  0.046718 0.160172 1.122225
7  2.000669 -2.999559 0.000000  -1.570796 0.000000 -1.326228
8  2.033340 1.000742 -1.937600  0.508178 1.360533 -1.219878
9  6.028135 0.000058 0.000003  -0.279142 -0.930607 0.178070
10  11.692532 -0.000013 0.000006  0.093171 0.113005 -0.641124
11  11.481742 0.000080 0.000029  -1.071857 0.475499 -0.485815
12  2.676082 -1.712441 -0.000001  -1.570793 -0.000003 -1.570908
13  3.859674 -0.132568 1.193096  0.506194 0.147485 -1.137937
14  1.312555 -0.000008 -0.000020  0.013021 0.014140 0.415493
15  0.729372 0.000010 0.000007  -0.021375 0.092987 -0.099189
16  3.942293 0.050327 0.431036  0.171761 0.073303 -1.072970
17  1.539094 -0.000004 -0.000014  0.012234 0.004982 0.253217
18  1.196316 0.000007 0.000003  0.006585 -0.034976 0.230525
19  3.883660 -0.050335 -0.431052  -0.074954 0.057453 -0.962762
20  1.719582 -0.000005 0.000005  0.019700 -0.003089 0.345913
21  1.209175 -0.000008 0.000002  0.022271 -0.220620 0.150767
22  3.859830 -0.148945 -1.331286  -0.348861 -0.004401 -0.852156
23  1.719423 0.000001 0.000004  0.015005 -0.004132 0.344123
24  1.099669 -0.000007 0.000010  0.032908 -0.218438 0.070751
25  0.806009 -0.359844 -1.318334  1.314477 0.133698 -0.480335
26  1.789787 -0.000020 -0.000009  -0.015351 0.003525 -0.241934
27  1.207000 -0.000005 -0.000000  -0.002616 -0.048358 -0.530169
28  3.374497 -2.124251 0.498299  -0.019299 -3.117648 0.762496
29  5.740846 0.000058 -0.000002  -0.084220 0.345996 -0.031245
30  11.481705 0.000094 -0.000007  0.000148 -0.000000 0.000009
31  11.692549 -0.000023 0.000000  0.000005 0.000000 -0.029505
32  5.560012 0.000005 -0.000003  -0.149006 -0.000000 -0.000005
33  1.500000 -0.000011 -0.000001  -0.286066 -0.000000 -0.000003
34  5.166964 0.000009 -0.000003  0.000000 -0.000001 -0.000000
35  2.033331 1.000734 1.937670  -0.777809 -1.269662 -1.138277
36  6.028160 -0.000046 0.000021  0.497377 1.007384 0.139857
37  11.692536 -0.000007 0.000016  0.076699 -0.092824 -0.357175
38  11.481681 0.000042 -0.000035  0.852005 -0.755602 -0.412847
39  2.676083 -1.712447 0.000002  1.570792 -0.000002 1.570605
40  3.859713 -0.142408 -1.191970  -0.506668 -0.161826 -1.179488
41  1.312560 0.000015 0.000006  -0.010691 -0.016492 0.411270
42  0.729357 0.000024 -0.000006  0.026800 -0.165954 0.037947
43  3.942328 0.046768 -0.431435  -0.171538 -0.083318 -1.095860
44  1.539102 0.000000 0.000003  -0.012677 -0.005364 0.256273
45  1.196314 -0.000023 0.000005  -0.003011 0.002027 0.338582
46  3.883693 -0.046781 0.431448  0.076385 -0.068566 -0.974695
47  1.719570 -0.000017 0.000011  -0.020756 0.006513 0.345371
48  1.209176 -0.000004 0.000005  -0.014193 0.218567 0.231183
49  0.806049 -0.348932 1.321262  -1.313774 -0.140264 -0.486455
50  1.789779 -0.000020 0.000004  0.014959 -0.006924 -0.239894
51  1.207003 0.000001 0.000004  0.005245 -0.000477 -0.522049
52  3.859865 -0.137955 1.332479  0.349277 0.318792 -0.905867
53  1.626595 0.278280 0.482903  -0.144103 -0.250327 0.525240
54  1.099667 -0.000006 0.000007  -0.030714 0.225465 0.101369
55  5.740852 0.000016 0.000006  0.000699 0.000000 0.000005
56  11.481709 0.000038 0.000003  0.001276 0.000000 -0.000005
57  11.692560 -0.000019 -0.000003  -0.000005 -0.000000 -0.029500
58  5.559995 -0.000012 -0.000002  0.000001 -0.000000 -0.000000
59  1.500002 -0.000002 0.000002  -0.000001 -0.000000 0.000001
60  5.166967 -0.000002 0.000005  0.000000 -0.000001 -0.000000
61  -3.890451 -0.000015 0.000004  -1.614142 -0.130580 -2.494952
62  17.848171 -0.000020 -0.000006  -1.089996 -0.536889 1.784099
63  16.751205 0.839698 0.823285  1.128200 -0.108513 -0.388837
64  6.879454 0.000006 -0.000004  -0.081338 -0.002949 -0.584373
65  3.890467 -0.000003 0.000003  -1.864001 -0.173592 -0.621459
66  17.848183 -0.000137 -0.000010  0.002635 0.079625 2.201208
67  16.525248 0.000048 -0.000001  -0.124588 0.538079 -0.662911
68  6.879452 -0.000013 0.000001  -0.007296 -0.002947 -0.584374
69  -0.044717 2.313940 4.661496  0.658543 -0.004336 -0.001880
time 8
0  0.532886 1.504671 32.466133  0.901493 0.001500 0.007739
1  0.000015 3.345129 -2.981905  1.572885 -0.340846 1.561926
2  4.018330 0.000007 -0.000000  0.002916 0.003533 0.243238
3  3.518565 0.000032 -0.000001  0.024052 -0.021457 0.222909
4  8.942615 -0.000002 -0.000023  -0.026332 -0.006732 0.520598
5  3.307266 -0.000048 0.000009  -2.905093 0.049086 0.641533
6  3.593697 -0.000050 -0.000015  0.029642 0.200391 1.174614
7  2.000663 -2.999557 0.000000  -1.570796 -0.000000 -1.326228
8  2.033342 1.000754 -1.937599  0.328310 1.338103 -1.437790
9  6.028132 0.000064 0.000006  -0.216518 -0.868637 0.036249
10  11.692530 -0.000011 -0.000002  0.109825 0.103749 -0.607168
11  11.481738 0.000071 0.000027  -1.060877 0.473650 -0.306954
12  2.676086 -1.712447 -0.000011  -1.570793 -0.000003 -1.570908
13  3.859677 -0.132571 1.193090  0.506424 0.157316 -1.140179
14  1.312564 -0.000008 -0.000008  0.013965 0.014048 0.416314
15  0.729360 0.000009 -0.000007  -0.021266 0.093098 -0.099988
16  3.942289 0.050325 0.431026  0.172032 0.081380 -1.074115
17  1.539088 -0.000009 -0.000004  0.013009 0.005145 0.253196
18  1.196322 -0.000008 -0.000004  0.006777 -0.035073 0.230338
19  3.883654 -0.050329 -0.431061  -0.074757 0.064794 -0.962681
20  1.719566 -0.000003 -0.000006  0.020512 -0.003023 0.345845
21  1.209177 -0.000006 0.000001  0.022414 -0.220661 0.150808
22  3.859825 -0.148938 -1.331302  -0.348658 0.003411 -0.851442
23  1.719429 0.000007 0.000002  0.015777 -0.004092 0.344077
24  1.099664 0.000001 -0.000001  0.033045 -0.218450 0.070776
25  0.806015 -0.359847 -1.318341  1.314976 0.142353 -0.479057
26  1.789778 -0.000017 -0.000008  -0.015779 0.003566 -0.242013
27  1.207007 -0.000005 0.000005  -0.002742 -0.048414 -0.530113
28  3.374496 -2.124244 0.498287  -0.019299 -3.117648 0.762496
29  5.740850 0.000035 -0.000003  -0.084220 0.345996 -0.031245
30  11.481700 0.000084 -0.000007  0.000148 -0.000000 0.000009
31  11.692554 -0.000023 -0.000006  0.000005 0.000000 -0.029505
32  5.560018 0.000006 -0.000004  -0.149006 -0.000000 -0.000005
33  1.500012 -0.000006 -0.000000  -0.286066 -0.000000 -0.000003
34  5.166963 -0.000006 0.000000  0.000000 -0.000001 0.000000
35  2.033338 1.000724 1.937672  -0.628085 -1.253364 -1.323125
36  6.028158 -0.000049 0.000021  0.379543 0.938551 -0.037845
37  11.692541 -0.000045 0.000023  0.062725 -0.080883 -0.295322
38  11.481681 0.000040 -0.000022  0.797256 -0.685924 -0.239791
39  2.676086 -1.712447 0.000008  1.570792 -0.000002 1.570605
40  3.859710 -0.142425 -1.191959  -0.506926 -0.172465 -1.182401
41  1.312570 0.000014 0.000007  -0.011843 -0.016375 0.412674
42  0.729356 0.000005 -0.000004  0.026671 -0.166265 0.037687
43  3.942329 0.046767 -0.431434  -0.171851 -0.092018 -1.097527
44  1.539098 0.000008 0.000008  -0.013571 -0.005504 0.256820
45  1.196324 -0.000013 -0.000001  -0.003239 0.002154 0.339104
46  3.883692 -0.046784 0.431456  0.076140 -0.076448 -0.975065
47  1.719580 0.000005 0.000021  -0.021639 0.006512 0.345932
48  1.209175 -0.000008 0.000011  -0.014352 0.218800 0.231792
49  0.806046 -0.348931 1.321268  -1.314319 -0.149142 -0.484902
50  1.789783 -0.000013 0.000002  0.015393 -0.006974 -0.240266
51  1.207001 -0.000019 -0.000004  0.005375 -0.000442 -0.522504
52  3.859879 -0.137967 1.332478  0.349485 0.310408 -0.905350
53  1.626596 0.278284 0.482906  -0.144897 -0.249871 0.525211
54  1.099661 -0.000005 0.000008  -0.030766 0.225234 0.102773
55  5.740851 0.000017 0.000000  0.000699 0.000000 0.000005
56  11.481707 0.000039 -0.000001  0.001275 0.000000 -0.000005
57  11.692564 -0.000018 -0.000001  -0.000005 -0.000000 -0.029500
58  5.559999 -0.000004 0.000010  0.000001 -0.000000 -0.000000
59  1.499993 0.000009 0.000005  -0.000001 -0.000000 0.000001
60  5.166967 -0.000017 0.000006  0.000000 -0.000001 0.000000
61  -3.890452 -0.000009 0.000010  -1.616278 -0.203414 -2.579367
62  17.848167 -0.000022 -0.000001  -1.185057 -0.563791 2.022277
63  16.751202 0.839696 0.823284  1.186128 -0.164617 -0.270502
64  6.879456 0.000006 -0.000003  -0.081326 -0.002949 -0.584373
65  3.890466 -0.000001 0.000006  -1.799776 -0.131976 -0.488481
66  17.848198 -0.000119 -0.000011  -0.076743 0.165838 2.277476
67  16.525253 0.000063 0.000002  0.113392 0.521317 -0.395524
68  6.879456 -0.000014 0.000001  -0.007296 -0.002947 -0.584374
69  -0.044717 2.313935 4.661499  0.669322 -0.007000 -0.003626
time 9
0  0.535474 1.468354 32.472549  0.894531 0.001662 0.011034
1  0.000014 3.345128 -2.981901  1.573686 -0.341446 1.562155
2  4.018329 0.000006 -0.000000  0.002917 0.003533 0.239268
3  3.518556 0.000031 -0.000001  0.023999 -0.021393 0.240558
4  8.942616 0.000003 -0.000025  -0.026941 -0.007227 0.524358
5  3.307272 -0.000063 0.000008  -2.871106 0.043653 0.666343
6  3.593684 -0.000040 -0.000008  0.016779 0.230353 1.208856
7  2.000666 -2.999559 0.000000  -1.570796 0.000000 -1.326228
8  2.033332 1.000751 -1.937597  0.361720 1.316075 -1.407269
9  6.028133 0.000057 0.000008  -0.035945 -0.839048 -0.148549
10  11.692535 -0.000024 0.000003  0.095558 0.116319 -0.691186
11  11.481729 0.000080 0.000025  -1.114323 0.399858 -0.080543
12  2.676087 -1.712442 -0.000006  -1.570793 -0.000003 -1.570908
13  3.859682 -0.132565 1.193094  0.506557 0.163353 -1.141683
14  1.312552 -0.000010 -0.000015  0.014532 0.014087 0.416249
15  0.729356 0.000003 0.000002  -0.021157 0.093086 -0.099917
16  3.942294 0.050333 0.431033  0.172195 0.086396 -1.074941
17  1.539087 -0.000008 0.000000  0.013487 0.005252 0.253178
18  1.196316 0.000006 -0.000001  0.006894 -0.035136 0.230220
19  3.883661 -0.050332 -0.431051  -0.074631 0.069356 -0.962608
20  1.719576 -0.000005 -0.000003  0.021015 -0.002980 0.345810
21  1.209170 0.000001 0.000001  0.022503 -0.220688 0.150830
22  3.859816 -0.148946 -1.331288  -0.348529 0.008269 -0.850906
23  1.719426 0.000005 0.000005  0.016253 -0.004066 0.344053
24  1.099668 -0.000004 0.000001  0.033130 -0.218460 0.070788
25  0.806000 -0.359831 -1.318330  1.315320 0.147968 -0.478123
26  1.789786 -0.000007 -0.000008  -0.016068 0.003593 -0.242066
27  1.207010 0.000001 0.000003  -0.002827 -0.048452 -0.530080
28  3.374501 -2.124243 0.498294  -0.019299 -3.117648 0.762496
29  5.740847 0.000041 0.000000  -0.084220 0.345996 -0.031245
30  11.481708 0.000099 -0.000011  0.000148 -0.000000 0.000009
31  11.692562 -0.000026 -0.000002  0.000005 0.000000 -0.029505
32  5.560008 -0.000001 -0.000002  -0.149005 -0.000000 -0.000005
33  1.500007 -0.000004 -0.000004  -0.286066 -0.000000 -0.000003
34  5.166963 0.000000 0.000003  0.000000 -0.000001 0.000000
35  2.033338 1.000732 1.937671  -0.637140 -1.233175 -1.317415
36  6.028159 -0.000041 0.000018  0.159595 0.905850 -0.244274
37  11.692540 -0.000025 0.000019  0.081634 -0.096696 -0.378321
38  11.481680 0.000043 -0.000034  0.858184 -0.558067 -0.040211
39  2.676090 -1.712447 0.000001  1.570792 -0.000002 1.570605
40  3.859717 -0.142412 -1.191970  -0.507062 -0.178891 -1.184087
41  1.312566 0.000020 -0.000005  -0.012518 -0.016437 0.412514
42  0.729360 0.000001 -0.000001  0.026507 -0.166208 0.037794
43  3.942330 0.046756 -0.431444  -0.172029 -0.097491 -1.098459
44  1.539106 0.000008 -0.000001  -0.014120 -0.005365 0.256285
45  1.196320 -0.000009 0.000003  -0.003375 0.002078 0.340199
46  3.883693 -0.046782 0.431454  0.075984 -0.081341 -0.974967
47  1.719574 -0.000006 0.000016  -0.022202 0.006471 0.345878
48  1.209184 0.000000 0.000003  -0.014457 0.218832 0.231813
49  0.806049 -0.348935 1.321250  -1.314718 -0.155193 -0.483860
50  1.789780 -0.000008 0.000010  0.015681 -0.006999 -0.240281
51  1.207010 -0.000016 -0.000006  0.005457 -0.000411 -0.522436
52  3.859856 -0.137957 1.332480  0.349621 0.305211 -0.904696
53  1.626595 0.278277 0.482905  -0.145427 -0.249912 0.525269
54  1.099662 -0.000014 0.000021  -0.030872 0.225292 0.102727
55  5.740850 0.000015 0.000002  0.000699 -0.000000 0.000005
56  11.481703 0.000030 0.000002  0.001276 -0.000000 -0.000005
57  11.692551 -0.000012 -0.000002  -0.000005 -0.000000 -0.029500
58  5.560001 -0.000011 0.000005  0.000001 -0.000000 0.000000
59  1.499994 -0.000000 0.000003  -0.000001 -0.000000 0.000001
60  5.166966 -0.000004 0.000005  0.000000 -0.000001 -0.000000
61  -3.890452 -0.000008 0.000008  -1.621444 -0.250228 -2.635949
62  17.848173 -0.000017 -0.000000  -1.287283 -0.579338 2.215098
63  16.751202 0.839700 0.823288  1.234224 -0.162623 -0.201665
64  6.879455 0.000007 -0.000005  -0.081330 -0.002949 -0.584374
65  3.890466 -0.000004 0.000008  -1.769681 -0.085623 -0.397411
66  17.848183 -0.000123 -0.000009  -0.126828 0.222574 2.309181
67  16.525242 0.000051 -0.000000  0.259061 0.437157 -0.252179
68  6.879453 -0.000015 0.000002  -0.007297 -0.002947 -0.584374
69  -0.044717 2.313938 4.661504  0.676301 -0.009646 -0.005610
time 10
0  0.537199 1.421487 32.483887  0.885304 0.001743 0.013773
1  0.000014 3.345134 -2.981907  1.573832 -0.348739 1.562309
2  4.018338 0.000005 -0.000000  0.002917 0.003533 0.237806
3  3.518553 0.000031 -0.000001  0.023980 -0.021369 0.247055
4  8.942616 -0.000001 -0.000024  -0.027684 -0.007575 0.528177
5  3.307255 -0.000046 0.000007  -2.856925 0.040846 0.674003
6  3.593695 -0.000044 -0.000011  0.010532 0.242485 1.222802
7  2.000665 -2.999560 0.000000  -1.570796 0.000000 -1.326228
8  2.033332 1.000746 -1.937602  0.406006 1.296695 -1.352666
9  6.028132 0.000057 0.000008  0.143953 -0.825354 -0.268347
10  11.692533 -0.000029 0.000000  0.094494 0.117797 -0.704464
11  11.481740 0.000064 0.000031  -1.213953 0.329924 -0.028917
12  2.676083 -1.712449 -0.000009  -1.570793 -0.000003 -1.570908
13  3.859684 -0.132576 1.193096  0.506598 0.165463 -1.142256
14  1.312556 -0.000002 0.000002  0.014727 0.014100 0.416227
15  0.729362 0.000005 -0.000003  -0.021119 0.093082 -0.099893
16  3.942301 0.050327 0.431035  0.172251 0.088142 -1.075256
17  1.539086 -0.000006 -0.000002  0.013652 0.005290 0.253171
18  1.196316 0.000000 -0.000002  0.006935 -0.035158 0.230180
19  3.883657 -0.050340 -0.431059  -0.074585 0.070948 -0.962579
20  1.719574 -0.000003 -0.000007  0.021190 -0.002966 0.345796
21  1.209177 -0.000004 0.000001  0.022534 -0.220698 0.150837
22  3.859824 -0.148949 -1.331298  -0.348483 0.009964 -0.850700
23  1.719427 0.000004 0.000003  0.016418 -0.004056 0.344045
24  1.099657 0.000002 0.000003  0.033160 -0.218464 0.070791
25  0.806012 -0.359846 -1.318331  1.315447 0.149976 -0.477767
26  1.789775 -0.000024 -0.000008  -0.016173 0.003603 -0.242081
27  1.207006 -0.000001 0.000002  -0.002858 -0.048466 -0.530069
28  3.374499 -2.124247 0.498296  -0.019299 -3.117648 0.762496
29  5.740852 0.000044 -0.000001  -0.084220 0.345996 -0.031245
30  11.481702 0.000094 -0.000006  0.000148 -0.000000 0.000009
31  11.692554 -0.000023 -0.000004  0.000005 0.000000 -0.029505
32  5.560011 -0.000010 0.000003  -0.149005 -0.000000 -0.000005
33  1.500001 0.000000 -0.000004  -0.286066 -0.000000 -0.000003
34  5.166962 -0.000008 0.000003  0.000000 -0.000001 -0.000000
35  2.033325 1.000731 1.937665  -0.661173 -1.215235 -1.284703
36  6.028158 -0.000047 0.000015  -0.031472 0.885876 -0.367721
37  11.692537 -0.000019 0.000016  0.086309 -0.100212 -0.398061
38  11.481687 0.000046 -0.000023  0.974907 -0.486596 -0.015666
39  2.676084 -1.712453 0.000014  1.570792 -0.000002 1.570605
40  3.859723 -0.142419 -1.191973  -0.507105 -0.181167 -1.184818
41  1.312577 0.000011 0.000004  -0.012757 -0.016475 0.412603
42  0.729361 0.000023 -0.000002  0.026456 -0.166218 0.037948
43  3.942326 0.046766 -0.431428  -0.172093 -0.099376 -1.098893
44  1.539095 -0.000002 0.000004  -0.014310 -0.005392 0.256409
45  1.196317 -0.000016 0.000001  -0.003423 0.002103 0.340317
46  3.883699 -0.046783 0.431461  0.075928 -0.083050 -0.975040
47  1.719576 -0.000011 0.000008  -0.022392 0.006474 0.346014
48  1.209182 -0.000007 0.000013  -0.014491 0.218886 0.231962
49  0.806035 -0.348927 1.321262  -1.314858 -0.157246 -0.483430
50  1.789783 -0.000015 0.000005  0.015791 -0.007014 -0.240375
51  1.207003 -0.000012 -0.000002  0.005490 -0.000403 -0.522548
52  3.859869 -0.137961 1.332478  0.349660 0.303433 -0.904580
53  1.626592 0.278283 0.482906  -0.145650 -0.249878 0.525482
54  1.099668 -0.000008 0.000011  -0.030912 0.225365 0.102856
55  5.740860 0.000021 0.000005  0.000699 0.000000 0.000005
56  11.481709 0.000046 0.000006  0.001275 0.000000 -0.000005
57  11.692555 -0.000017 -0.000004  -0.000005 -0.000000 -0.029500
58  5.560006 -0.000014 -0.000001  0.000001 -0.000000 0.000000
59  1.500003 0.000004 -0.000001  -0.000001 -0.000000 0.000001
60  5.166968 -0.000002 0.000004  0.000000 -0.000001 0.000000
61  -3.890452 -0.000006 0.000006  -1.639982 -0.263508 -2.664722
62  17.848167 -0.000021 -0.000005  -1.398260 -0.589085 2.363857
63  16.751194 0.839701 0.823286  1.259446 -0.101961 -0.187098
64  6.879453 0.000005 -0.000005  -0.081330 -0.002949 -0.584373
65  3.890465 -0.000008 0.000006  -1.798301 -0.044594 -0.358267
66  17.848179 -0.000134 -0.000001  -0.138465 0.233558 2.307396
67  16.525249 0.000050 -0.000007  0.284882 0.362445 -0.235744
68  6.879455 -0.000012 0.000001  -0.007297 -0.002947 -0.584374
69  -0.044717 2.313931 4.661501  0.685548 -0.011765 -0.007370
time 11
0  0.528447 1.274821 32.480949  0.875894 0.002794 0.015178
1  0.000014 3.345130 -2.981900  1.574019 -0.351883 1.562175
2  4.018337 0.000006 -0.000000  0.002917 0.003533 0.239268
3  3.518552 0.000031 -0.000001  0.023980 -0.021369 0.247055
4  8.942604 0.000002 -0.000024  -0.028163 -0.007844 0.527980
5  3.307267 -0.000057 0.000009  -2.859475 0.042017 0.649801
6  3.593698 -0.000053 -0.000016  0.003448 0.236878 1.193059
7  2.000669 -2.999556 0.000000  -1.570796 0.000000 -1.326228
8  2.033337 1.000738 -1.937597  0.426098 1.303336 -1.327655
9  6.028136 0.000055 0.000008  0.298565 -0.842104 -0.368715
10  11.692540 -0.000005 -0.000004  0.097259 0.115119 -0.684161
11  11.481743 0.000082 0.000032  -1.288743 0.302033 -0.040261
12  2.676081 -1.712444 -0.000009  -1.570793 -0.000003 -1.570908
13  3.859677 -0.132568 1.193095  0.506557 0.163353 -1.141684
14  1.312564 -0.000010 -0.000010  0.014532 0.014087 0.416249
15  0.729363 0.000005 0.000003  -0.021157 0.093086 -0.099917
16  3.942294 0.050334 0.431029  0.172195 0.086395 -1.074942
17  1.539103 -0.000002 -0.000012  0.013487 0.005252 0.253178
18  1.196320 -0.000001 0.000004  0.006894 -0.035136 0.230220
19  3.883651 -0.050321 -0.431055  -0.074631 0.069357 -0.962609
20  1.719579 -0.000009 -0.000001  0.021015 -0.002980 0.345808
21  1.209178 -0.000002 -0.000001  0.022503 -0.220688 0.150830
22  3.859822 -0.148944 -1.331296  -0.348529 0.008270 -0.850906
23  1.719427 0.000008 -0.000002  0.016253 -0.004066 0.344053
24  1.099654 -0.000004 -0.000002  0.033130 -0.218460 0.070788
25  0.806010 -0.359839 -1.318333  1.315320 0.147968 -0.478123
26  1.789793 -0.000014 -0.000014  -0.016068 0.003593 -0.242066
27  1.207005 -0.000010 0.000002  -0.002827 -0.048452 -0.530080
28  3.374499 -2.124249 0.498293  -0.019299 -3.117648 0.762496
29  5.740848 0.000040 -0.000006  -0.084220 0.345996 -0.031245
30  11.481703 0.000090 -0.000010  0.000148 -0.000000 0.000009
31  11.692551 -0.000012 -0.000006  0.000005 0.000000 -0.029505
32  5.560006 -0.000009 -0.000003  -0.149005 -0.000000 -0.000005
33  1.500008 0.000002 -0.000005  -0.286066 -0.000000 -0.000003
34  5.166963 0.000008 0.000005  0.000000 -0.000001 0.000000
35  2.033338 1.000726 1.937672  -0.677495 -1.221117 -1.263423
36  6.028161 -0.000033 0.000016  -0.164857 0.902429 -0.452057
37  11.692538 -0.000036 0.000018  0.084005 -0.098497 -0.388362
38  11.481687 0.000047 -0.000021  1.044866 -0.480842 -0.037310
39  2.676080 -1.712450 0.000013  1.570792 -0.000002 1.570605
40  3.859718 -0.142420 -1.191974  -0.507076 -0.179033 -1.184459
41  1.312569 0.000015 0.000000  -0.012549 -0.016511 0.413149
42  0.729365 0.000011 -0.000005  0.026531 -0.166341 0.038305
43  3.942319 0.046766 -0.431431  -0.172041 -0.097534 -1.098817
44  1.539094 -0.000009 0.000004  -0.014117 -0.005366 0.256819
45  1.196326 -0.000001 0.000007  -0.003375 0.002074 0.340865
46  3.883700 -0.046774 0.431452  0.075979 -0.081355 -0.975438
47  1.719563 -0.000015 0.000018  -0.022177 0.006542 0.346531
48  1.209176 0.000012 0.000002  -0.014446 0.219007 0.232401
49  0.806044 -0.348927 1.321258  -1.314687 -0.154719 -0.483716
50  1.789787 -0.000018 0.000005  0.015693 -0.007019 -0.240653
51  1.207009 0.000004 -0.000004  0.005470 -0.000425 -0.523023
52  3.859869 -0.137963 1.332474  0.349592 0.305358 -0.905273
53  1.626584 0.278286 0.482901  -0.145602 -0.249701 0.526118
54  1.099671 -0.000013 0.000022  -0.030888 0.225523 0.103379
55  5.740856 0.000032 0.000007  0.000699 0.000000 0.000005
56  11.481710 0.000035 0.000003  0.001275 -0.000000 -0.000005
57  11.692562 -0.000021 0.000005  -0.000005 -0.000000 -0.029500
58  5.560005 -0.000008 0.000003  0.000001 -0.000000 0.000000
59  1.499998 -0.000002 0.000002  -0.000001 -0.000000 0.000001
60  5.166967 -0.000010 0.000003  0.000000 -0.000001 0.000000
61  -3.890452 -0.000016 0.000002  -1.670037 -0.254687 -2.672925
62  17.848177 -0.000022 -0.000008  -1.531785 -0.596226 2.459979
63  16.751200 0.839701 0.823288  1.267058 0.007741 -0.217413
64  6.879453 0.000004 -0.000001  -0.081330 -0.002949 -0.584373
65  3.890467 -0.000012 -0.000005  -1.836256 -0.011181 -0.329030
66  17.848190 -0.000126 -0.000008  -0.143794 0.233396 2.307173
67  16.525244 0.000059 0.000004  0.331994 0.330013 -0.289918
68  6.879449 -0.000015 0.000001  -0.007297 -0.002947 -0.584374
69  -0.044717 2.313935 4.661491  0.694974 -0.013447 -0.007573
time 12
0  0.509613 1.030105 32.472679  0.870296 0.004577 0.014970
1  0.000014 3.345130 -2.981899  1.574201 -0.343907 1.561799
2  4.018336 0.000005 -0.000000  0.002916 0.003533 0.243238
3  3.518560 0.000032 -0.000001  0.023980 -0.021369 0.247055
4  8.942624 0.000005 -0.000024  -0.027941 -0.008077 0.522230
5  3.307267 -0.000054 0.000007  -2.888910 0.048932 0.569168
6  3.593692 -0.000040 -0.000014  -0.002578 0.204231 1.097407
7  2.000671 -2.999557 0.000000  -1.570796 0.000000 -1.326228
8  2.033332 1.000748 -1.937599  0.478576 1.343557 -1.275558
9  6.028135 0.000058 0.000010  0.464532 -0.896859 -0.470318
10  11.692536 -0.000018 0.000010  0.100208 0.111018 -0.647772
11  11.481741 0.000070 0.000042  -1.348547 0.290394 -0.101903
12  2.676080 -1.712448 -0.000010  -1.570793 -0.000003 -1.570908
13  3.859673 -0.132570 1.193089  0.506424 0.157320 -1.140190
14  1.312565 -0.000007 -0.000011  0.013965 0.014049 0.416324
15  0.729359 0.000007 -0.000006  -0.021267 0.093099 -0.099979
16  3.942294 0.050322 0.431019  0.172032 0.081380 -1.074118
17  1.539095 -0.000002 -0.000006  0.013009 0.005145 0.253201
18  1.196312 -0.000012 -0.000003  0.006776 -0.035074 0.230345
19  3.883659 -0.050337 -0.431061  -0.074757 0.064794 -0.962685
20  1.719582 -0.000008 -0.000008  0.020512 -0.003024 0.345852
21  1.209177 -0.000002 -0.000002  0.022414 -0.220663 0.150814
22  3.859824 -0.148950 -1.331305  -0.348658 0.003409 -0.851447
23  1.719427 0.000003 0.000012  0.015776 -0.004093 0.344088
24  1.099667 0.000001 -0.000004  0.033045 -0.218453 0.070783
25  0.806006 -0.359846 -1.318348  1.314976 0.142352 -0.479058
26  1.789790 -0.000017 -0.000007  -0.015779 0.003565 -0.242015
27  1.207008 -0.000011 -0.000000  -0.002742 -0.048414 -0.530114
28  3.374488 -2.124242 0.498290  -0.019299 -3.117648 0.762496
29  5.740851 0.000048 -0.000003  -0.084220 0.345996 -0.031245
30  11.481705 0.000087 -0.000009  0.000148 0.000000 0.000009
31  11.692548 -0.000009 0.000001  0.000005 0.000000 -0.029505
32  5.560003 -0.000008 0.000002  -0.149005 0.000000 -0.000005
33  1.500002 -0.000001 -0.000004  -0.286066 -0.000000 -0.000003
34  5.166964 0.000007 0.000005  0.000000 -0.000001 -0.000000
35  2.033331 1.000727 1.937666  -0.729635 -1.257667 -1.210232
36  6.028154 -0.000046 0.000020  -0.288457 0.967160 -0.526673
37  11.692528 -0.000031 0.000001  0.079005 -0.094655 -0.367101
38  11.481678 0.000043 -0.000024  1.093108 -0.515704 -0.103389
39  2.676081 -1.712451 0.000007  1.570792 -0.000002 1.570605
40  3.859704 -0.142416 -1.191962  -0.506934 -0.172526 -1.182599
41  1.312560 0.000000 0.000001  -0.011858 -0.016421 0.413107
42  0.729356 0.000025 -0.000001  0.026689 -0.166347 0.038031
43  3.942321 0.046772 -0.431433  -0.171858 -0.092023 -1.097748
44  1.539092 0.000005 -0.000004  -0.013562 -0.005496 0.257210
45  1.196322 -0.000016 0.000003  -0.003235 0.002156 0.339579
46  3.883700 -0.046775 0.431455  0.076134 -0.076437 -0.975390
47  1.719591 -0.000017 0.000017  -0.021611 0.006574 0.346429
48  1.209186 -0.000004 0.000012  -0.014342 0.218935 0.232233
49  0.806036 -0.348927 1.321259  -1.314301 -0.148769 -0.484773
50  1.789779 -0.000012 0.000003  0.015406 -0.006995 -0.240525
51  1.207001 -0.000006 0.000000  0.005388 -0.000455 -0.522929
52  3.859864 -0.137961 1.332481  0.349459 0.310544 -0.905768
53  1.626580 0.278274 0.482902  -0.145023 -0.249696 0.525871
54  1.099675 -0.000000 0.000009  -0.030777 0.225420 0.103280
55  5.740848 0.000042 0.000006  0.000699 0.000000 0.000005
56  11.481715 0.000043 0.000003  0.001276 -0.000000 -0.000005
57  11.692554 -0.000026 -0.000008  -0.000005 -0.000000 -0.029500
58  5.559997 -0.000004 0.000001  0.000001 -0.000000 -0.000000
59  1.500003 -0.000004 0.000000  -0.000001 -0.000000 0.000001
60  5.166967 0.000014 0.000002  0.000000 -0.000001 0.000000
61  -3.890451 -0.000012 0.000005  -1.703984 -0.237068 -2.670666
62  17.848173 -0.000016 0.000001  1.451560 -2.537118 -0.636047
63  16.751198 0.839695 0.823287  1.254976 0.159022 -0.272876
64  6.879451 0.000006 -0.000004  -0.081326 -0.002949 -0.584374
65  3.890464 -0.000004 0.000001  -1.860058 0.007134 -0.301852
66  17.848192 -0.000116 -0.000015  -0.137851 0.227773 2.319983
67  16.525246 0.000060 0.000004  0.417927 0.358582 -0.392702
68  6.879452 -0.000015 0.000000  -0.007296 -0.002947 -0.584373
69  -0.044717 2.313935 4.661502  0.700579 -0.014395 -0.006151
time 13
0  0.495267 0.897260 32.493370  0.873415 0.005810 0.012871
1  0.000015 3.345131 -2.981903  1.573568 -0.333040 1.561603
2  4.018322 0.000006 -0.000000  0.002915 0.003532 0.249088
3  3.518558 0.000030 -0.000001  0.023980 -0.021369 0.247055
4  8.942609 0.000002 -0.000025  -0.027168 -0.007842 0.515764
5  3.307256 -0.000046 0.000007  -2.936330 0.057962 0.442888
6  3.593688 -0.000039 -0.000012  0.002041 0.158488 0.964807
7  2.000671 -2.999558 0.000000  -1.570796 -0.000000 -1.326228
8  2.033342 1.000747 -1.937601  0.575067 1.396654 -1.181933
9  6.028131 0.000052 0.000013  0.617133 -0.961131 -0.570028
10  11.692543 -0.000009 0.000006  0.103473 0.105715 -0.598563
11  11.481738 0.000068 0.000036  -1.365692 0.296989 -0.213413
12  2.676082 -1.712447 -0.000007  -1.570793 -0.000003 -1.570908
13  3.859676 -0.132573 1.193090  0.506194 0.147490 -1.137948
14  1.312572 0.000002 -0.000014  0.013022 0.014141 0.415508
15  0.729358 0.000008 0.000007  -0.021375 0.092990 -0.099178
16  3.942295 0.050336 0.431037  0.171761 0.073304 -1.072971
17  1.539100 -0.000002 -0.000010  0.012234 0.004982 0.253219
18  1.196319 -0.000004 0.000000  0.006585 -0.034976 0.230528
19  3.883656 -0.050335 -0.431056  -0.074954 0.057453 -0.962765
20  1.719578 -0.000009 0.000001  0.019700 -0.003089 0.345918
21  1.209179 -0.000002 -0.000002  0.022271 -0.220621 0.150771
22  3.859814 -0.148941 -1.331295  -0.348861 -0.004401 -0.852162
23  1.719414 0.000005 0.000007  0.015005 -0.004132 0.344133
24  1.099663 -0.000001 -0.000008  0.032909 -0.218439 0.070756
25  0.806013 -0.359838 -1.318331  1.314477 0.133699 -0.480335
26  1.789784 -0.000012 -0.000009  -0.015351 0.003525 -0.241933
27  1.207008 0.000002 -0.000001  -0.002616 -0.048358 -0.530171
28  3.374499 -2.124239 0.498294  -0.019299 -3.117648 0.762496
29  5.740848 0.000041 -0.000004  -0.084220 0.345996 -0.031245
30  11.481691 0.000080 -0.000002  0.000148 0.000000 0.000009
31  11.692557 -0.000017 -0.000004  0.000005 0.000000 -0.029505
32  5.560003 -0.000015 0.000000  -0.149006 -0.000000 -0.000005
33  1.500002 -0.000008 -0.000001  -0.286066 -0.000000 -0.000003
34  5.166961 0.000020 0.000005  0.000000 -0.000001 -0.000000
35  2.033342 1.000729 1.937673  -0.815182 -1.305473 -1.126421
36  6.028156 -0.000049 0.000012  -0.388403 1.049692 -0.598533
37  11.692537 -0.000011 0.000006  0.072817 -0.089657 -0.340307
38  11.481674 0.000043 -0.000027  1.104006 -0.579665 -0.209194
39  2.676074 -1.712451 0.000007  1.570792 -0.000002 1.570605
40  3.859710 -0.142412 -1.191962  -0.506689 -0.161989 -1.180042
41  1.312567 0.000005 0.000004  -0.010721 -0.016601 0.412348
42  0.729360 0.000028 0.000001  0.026845 -0.166157 0.038806
43  3.942323 0.046765 -0.431430  -0.171558 -0.083336 -1.096433
44  1.539089 -0.000009 -0.000002  -0.012653 -0.005343 0.257220
45  1.196316 -0.000004 -0.000000  -0.003002 0.002031 0.339738
46  3.883683 -0.046776 0.431453  0.076371 -0.068539 -0.975490
47  1.719575 -0.000012 0.000019  -0.020687 0.006658 0.346528
48  1.209169 -0.000006 0.000004  -0.014168 0.218888 0.232221
49  0.806048 -0.348927 1.321257  -1.313726 -0.139430 -0.486186
50  1.789782 -0.000003 0.000002  0.014983 -0.006962 -0.240465
51  1.207001 -0.000007 -0.000003  0.005270 -0.000501 -0.522987
52  3.859869 -0.137975 1.332476  0.349215 0.319112 -0.906887
53  1.626586 0.278281 0.482903  -0.144399 -0.249915 0.526797
54  1.099665 -0.000010 0.000012  -0.030742 0.225903 0.102565
55  5.740852 0.000034 0.000007  0.000699 0.000000 0.000005
56  11.481706 0.000032 0.000006  0.001275 0.000000 -0.000005
57  11.692559 -0.000009 -0.000004  -0.000005 -0.000000 -0.029500
58  5.560008 -0.000003 0.000003  0.000001 -0.000000 -0.000000
59  1.499998 0.000006 0.000001  -0.000001 -0.000000 0.000001
60  5.166968 -0.000007 0.000002  0.000000 -0.000001 -0.000000
61  -3.890452 -0.000002 0.000012  -1.734432 -0.208897 -2.656352
62  17.848171 -0.000019 -0.000000  1.284877 -2.520105 -0.633299
63  16.751204 0.839693 0.823285  1.195490 0.360667 -0.345273
64  6.879456 0.000008 -0.000002  -0.081339 -0.002949 -0.584374
65  3.890467 -0.000019 -0.000001  -1.879066 0.011850 -0.295136
66  17.848183 -0.000130 -0.000004  -0.125804 0.223022 2.326160
67  16.525251 0.000060 0.000003  0.519052 0.447889 -0.530560
68  6.879450 -0.000013 -0.000000  -0.007297 -0.002947 -0.584374
69  -0.044717 2.313934 4.661499  0.697445 -0.013597 -0.003813
time 14
0  0.497707 1.105858 32.601067  0.893091 0.005376 0.008046
1  0.000014 3.345126 -2.981902  1.571708 -0.325831 1.561748
2  4.018326 0.000006 -0.000000  0.002914 0.003532 0.256191
3  3.518551 0.000032 -0.000001  0.023980 -0.021369 0.247055
4  8.942626 0.000002 -0.000026  -0.026245 -0.006800 0.512376
5  3.307264 -0.000032 0.000008  -2.991942 0.065125 0.281878
6  3.593695 -0.000048 -0.000017  0.022163 0.114054 0.823112
7  2.000670 -2.999558 0.000001  -1.570796 0.000000 -1.326228
8  2.033341 1.000749 -1.937600  0.723068 1.443176 -1.034963
9  6.028134 0.000051 0.000010  0.694826 -1.021545 -0.629634
10  11.692534 -0.000010 -0.000001  0.107468 0.099209 -0.538594
11  11.481743 0.000071 0.000029  -1.315551 0.335503 -0.385824
12  2.676090 -1.712454 -0.000013  -1.570793 -0.000003 -1.570908
13  3.859688 -0.132577 1.193097  0.505785 0.134590 -1.135710
14  1.312558 -0.000003 -0.000013  0.011753 0.014046 0.415635
15  0.729364 -0.000002 -0.000001  -0.021618 0.093018 -0.099362
16  3.942297 0.050314 0.431026  0.171385 0.062514 -1.071724
17  1.539098 -0.000003 -0.000009  0.011187 0.004776 0.253219
18  1.196316 -0.000005 0.000001  0.006328 -0.034853 0.230810
19  3.883657 -0.050340 -0.431058  -0.075206 0.047658 -0.962810
20  1.719588 -0.000013 -0.000005  0.018613 -0.003170 0.346002
21  1.209179 -0.000002 -0.000002  0.022080 -0.220569 0.150695
22  3.859826 -0.148944 -1.331297  -0.349125 -0.014802 -0.852865
23  1.719418 -0.000002 -0.000006  0.013969 -0.004182 0.344167
24  1.099670 -0.000004 -0.000003  0.032725 -0.218416 0.070702
25  0.806009 -0.359847 -1.318346  1.313892 0.122727 -0.481698
26  1.789786 -0.000011 -0.000009  -0.014835 0.003475 -0.241827
27  1.206991 -0.000008 0.000001  -0.002464 -0.048288 -0.530218
28  3.374502 -2.124246 0.498291  -0.019299 -3.117648 0.762496
29  5.740851 0.000044 -0.000007  -0.084220 0.345996 -0.031245
30  11.481695 0.000097 -0.000003  0.000148 -0.000000 0.000009
31  11.692560 -0.000023 -0.000003  0.000005 0.000000 -0.029505
32  5.560002 -0.000012 0.000000  -0.149006 0.000000 -0.000005
33  1.500007 -0.000007 0.000001  -0.286066 -0.000000 -0.000003
34  5.166964 0.000004 0.000001  0.000000 -0.000001 0.000000
35  2.033326 1.000743 1.937671  -0.919772 -1.347040 -1.023460
36  6.028152 -0.000045 0.000015  -0.432603 1.124955 -0.650325
37  11.692530 -0.000032 0.000018  0.066876 -0.084590 -0.314031
38  11.481678 0.000046 -0.000028  1.067656 -0.668661 -0.350208
39  2.676095 -1.712450 0.000007  1.570792 -0.000002 1.570605
40  3.859712 -0.142413 -1.191960  -0.506244 -0.148283 -1.177621
41  1.312557 0.000010 -0.000001  -0.009205 -0.016451 0.412848
42  0.729374 0.000019 -0.000014  0.027218 -0.166302 0.038624
43  3.942330 0.046762 -0.431430  -0.171142 -0.071762 -1.095104
44  1.539094 0.000001 0.000007  -0.011430 -0.005151 0.257339
45  1.196321 0.000008 -0.000004  -0.002688 0.001867 0.340100
46  3.883690 -0.046782 0.431455  0.076653 -0.058145 -0.975343
47  1.719563 -0.000024 0.000016  -0.019455 0.007195 0.345812
48  1.209184 -0.000011 0.000012  -0.013853 0.218332 0.233111
49  0.806062 -0.348934 1.321261  -1.313042 -0.127469 -0.487671
50  1.789797 -0.000005 0.000004  0.014477 -0.006926 -0.240488
51  1.207003 -0.000008 0.000000  0.005129 -0.000561 -0.523223
52  3.859860 -0.137943 1.332475  0.348882 0.330307 -0.907980
53  1.626587 0.278278 0.482906  -0.143287 -0.249755 0.526948
54  1.099677 -0.000014 0.000004  -0.030518 0.225870 0.102846
55  5.740854 0.000015 0.000004  0.000699 0.000000 0.000005
56  11.481707 0.000046 0.000005  0.001275 0.000000 -0.000005
57  11.692560 -0.000017 -0.000003  -0.000005 -0.000000 -0.029500
58  5.560006 0.000002 0.000001  0.000001 -0.000000 -0.000000
59  1.499999 -0.000006 0.000003  -0.000001 -0.000000 0.000001
60  5.166965 -0.000020 0.000000  0.000000 -0.000001 -0.000000
61  -3.890451 -0.000009 0.000011  -1.751326 -0.168252 -2.624719
62  17.848179 -0.000019 -0.000008  1.130035 -2.488116 -0.671833
63  16.751200 0.839695 0.823287  1.055336 0.607305 -0.444413
64  6.879451 0.000004 -0.000003  -0.081334 -0.002949 -0.584374
65  3.890465 -0.000008 -0.000000  -1.941402 -0.003443 -0.358697
66  17.848186 -0.000136 -0.000007  -0.097862 0.206597 2.281811
67  16.525251 0.000046 0.000000  0.532584 0.551366 -0.726605
68  6.879451 -0.000015 0.000001  -0.007297 -0.002947 -0.584374
69  -0.044717 2.313937 4.661500  0.677731 -0.009638 -0.000857
time 15
0  0.517712 1.695187 32.966454  0.931636 0.002977 0.002639
1  0.000013 3.345129 -2.981901  1.569837 -0.325399 1.562148
2  4.018328 0.000007 -0.000000  0.002913 0.003531 0.263922
3  3.518567 0.000033 -0.000001  0.023980 -0.021369 0.247055
4  8.942614 -0.000009 -0.000023  -0.025310 -0.005582 0.512416
5  3.307259 -0.000040 0.000007  -3.044181 0.066238 0.097752
6  3.593699 -0.000037 -0.000015  0.047162 0.078843 0.687862
7  2.000666 -2.999560 0.000000  -1.570796 0.000000 -1.326228
8  2.033327 1.000752 -1.937599  0.843692 1.467085 -0.909363
9  6.028132 0.000055 0.000010  0.679663 -1.056113 -0.631131
10  11.692535 -0.000026 0.000003  0.112677 0.091393 -0.469541
11  11.481731 0.000080 0.000028  -1.211586 0.407598 -0.601268
12  2.676091 -1.712452 -0.000011  -1.570793 -0.000003 -1.570908
13  3.859685 -0.132572 1.193090  0.505236 0.119431 -1.133686
14  1.312567 -0.000005 -0.000008  0.010227 0.013934 0.415796
15  0.729366 -0.000002 0.000000  -0.021908 0.093050 -0.099574
16  3.942300 0.050316 0.431028  0.170936 0.049724 -1.070427
17  1.539098 -0.000005 -0.000011  0.009942 0.004583 0.253338
18  1.196315 -0.000003 0.000004  0.006028 -0.034673 0.230279
19  3.883654 -0.050337 -0.431065  -0.075492 0.036120 -0.962796
20  1.719573 -0.000006 -0.000007  0.017329 -0.003257 0.346114
21  1.209176 -0.000002 -0.000001  0.021856 -0.220515 0.150594
22  3.859816 -0.148944 -1.331292  -0.349431 -0.027042 -0.853437
23  1.719440 -0.000001 0.000006  0.012740 -0.004241 0.344215
24  1.099662 -0.000003 0.000001  0.032509 -0.218386 0.070639
25  0.806012 -0.359846 -1.318348  1.313293 0.110446 -0.482905
26  1.789783 -0.000015 -0.000008  -0.014292 0.003420 -0.241709
27  1.206992 -0.000005 -0.000002  -0.002303 -0.048214 -0.530263
28  3.374498 -2.124246 0.498289  -0.019299 -3.117648 0.762496
29  5.740848 0.000043 0.000001  -0.084220 0.345996 -0.031245
30  11.481702 0.000087 -0.000009  0.000148 0.000000 0.000009
31  11.692551 -0.000018 0.000001  0.000005 0.000000 -0.029505
32  5.559998 -0.000009 0.000001  -0.149005 0.000000 -0.000005
33  1.500006 -0.000008 -0.000004  -0.286066 -0.000000 -0.000003
34  5.166965 0.000004 0.000006  0.000000 -0.000001 0.000000
35  2.033316 1.000737 1.937669  -0.987950 -1.368856 -0.952955
36  6.028157 -0.000046 0.000016  -0.413646 1.163922 -0.669065
37  11.692537 -0.000025 0.000015  0.062184 -0.080391 -0.292864
38  11.481686 0.000044 -0.000020  1.001227 -0.775284 -0.509987
39  2.676088 -1.712454 0.000009  1.570792 -0.000002 1.570605
40  3.859711 -0.142413 -1.191958  -0.505627 -0.132125 -1.175338
41  1.312562 0.000013 -0.000005  -0.007366 -0.016241 0.413228
42  0.729352 0.000007 -0.000004  0.027657 -0.166425 0.038213
43  3.942330 0.046753 -0.431432  -0.170627 -0.058093 -1.093773
44  1.539083 0.000009 0.000003  -0.009969 -0.004927 0.257264
45  1.196321 -0.000001 0.000003  -0.002314 0.001683 0.340304
46  3.883698 -0.046783 0.431457  0.077002 -0.045758 -0.975359
47  1.719579 -0.000009 0.000016  -0.017996 0.007333 0.345932
48  1.209188 -0.000012 0.000006  -0.013578 0.218243 0.233049
49  0.806049 -0.348933 1.321261  -1.312351 -0.114239 -0.489041
50  1.789784 -0.000028 0.000000  0.013943 -0.006881 -0.240356
51  1.206997 -0.000004 -0.000003  0.004979 -0.000620 -0.523275
52  3.859871 -0.137961 1.332475  0.348486 0.343432 -0.908795
53  1.626592 0.278276 0.482897  -0.141908 -0.249632 0.526852
54  1.099665 -0.000006 0.000009  -0.030249 0.225759 0.102953
55  5.740854 0.000012 0.000001  0.000699 0.000000 0.000005
56  11.481698 0.000042 0.000000  0.001275 -0.000000 -0.000005
57  11.692565 -0.000019 -0.000000  -0.000005 -0.000000 -0.029500
58  5.560003 -0.000005 0.000004  0.000001 -0.000000 0.000000
59  1.499998 0.000010 -0.000002  -0.000001 -0.000000 0.000001
60  5.166968 -0.000016 0.000002  0.000000 -0.000001 -0.000000
61  -3.890452 -0.000003 0.000007  -1.761094 -0.095660 -2.561569
62  17.848171 -0.000020 -0.000004  1.019296 -2.430425 -0.786169
63  16.751200 0.839698 0.823286  0.796372 0.858718 -0.618853
64  6.879450 0.000005 -0.000002  -0.081333 -0.002949 -0.584374
65  3.890465 -0.000022 -0.000002  -2.051670 -0.048120 -0.543266
66  17.848181 -0.000124 -0.000012  -0.043879 0.166956 2.103349
67  16.525248 0.000045 0.000005  0.389871 0.555912 -0.976207
68  6.879454 -0.000014 0.000001  -0.007297 -0.002947 -0.584373
69  -0.044717 2.313937 4.661495  0.639163 -0.003894 0.000815
time 16
0  0.551190 2.252198 33.880669  1.027458 0.000451 0.000398
1  0.000015 3.345135 -2.981899  1.568811 -0.286513 1.563430
2  4.018326 0.000006 -0.000000  0.002911 0.003530 0.271655
3  3.518576 0.000033 -0.000001  0.023980 -0.021369 0.247055
4  8.942621 -0.000003 -0.000023  -0.024751 -0.004404 0.462178
5  3.307271 -0.000049 0.000007  -3.083917 0.056869 -0.013421
6  3.593683 -0.000052 -0.000011  0.064641 0.051710 0.593285
7  2.000653 -2.999561 0.000000  -1.570796 -0.000000 -1.326228
8  2.033351 1.000748 -1.937603  0.849355 1.501479 -0.851998
9  6.028138 0.000053 0.000017  0.607778 -0.933367 -0.685294
10  11.692539 -0.000018 0.000005  0.121947 0.080112 -0.382565
11  11.481740 0.000069 0.000030  -0.975017 0.561162 -0.635035
12  2.676083 -1.712436 -0.000004  -1.570793 -0.000003 -1.570908
13  3.859686 -0.132572 1.193096  0.504597 0.103470 -1.132139
14  1.312560 -0.000009 -0.000004  0.008588 0.013816 0.415992
15  0.729367 -0.000005 0.000002  -0.022221 0.093091 -0.099787
16  3.942293 0.050319 0.431031  0.170441 0.036296 -1.069573
17  1.539094 -0.000008 -0.000007  0.008616 0.004348 0.253324
18  1.196332 0.000002 0.000000  0.005702 -0.034542 0.230786
19  3.883657 -0.050332 -0.431053  -0.075785 0.023952 -0.962739
20  1.719572 -0.000000 -0.000005  0.015971 -0.003341 0.346256
21  1.209178 0.000002 -0.000000  0.021620 -0.220470 0.150488
22  3.859817 -0.148938 -1.331292  -0.349752 -0.039947 -0.853819
23  1.719434 0.000013 0.000002  0.011436 -0.004304 0.344308
24  1.099675 -0.000006 -0.000008  0.032281 -0.218370 0.070601
25  0.806016 -0.359838 -1.318335  1.312742 0.098095 -0.483792
26  1.789782 -0.000009 -0.000011  -0.013780 0.003369 -0.241582
27  1.206992 -0.000003 0.000004  -0.002150 -0.048144 -0.530348
28  3.374490 -2.124242 0.498300  -0.019299 -3.117648 0.762496
29  5.740854 0.000046 -0.000005  -0.084220 0.345996 -0.031245
30  11.481698 0.000086 -0.000008  0.000148 -0.000000 0.000009
31  11.692551 -0.000018 -0.000002  0.000005 0.000000 -0.029505
32  5.560000 -0.000006 -0.000004  -0.149006 0.000000 -0.000005
33  1.500004 -0.000008 -0.000005  -0.286066 -0.000000 -0.000003
34  5.166963 0.000005 0.000005  0.000000 -0.000001 -0.000000
35  2.033332 1.000728 1.937672  -0.974630 -1.403135 -0.915482
36  6.028160 -0.000064 0.000021  -0.369795 1.038192 -0.754505
37  11.692538 -0.000017 0.000019  0.056573 -0.075123 -0.267030
38  11.481673 0.000047 -0.000034  0.713097 -0.876116 -0.410774
39  2.676094 -1.712442 0.000007  1.570792 -0.000002 1.570605
40  3.859723 -0.142423 -1.191965  -0.504922 -0.114955 -1.173435
41  1.312569 0.000018 -0.000005  -0.005378 -0.016293 0.412643
42  0.729362 0.000002 -0.000002  0.028015 -0.166313 0.038762
43  3.942329 0.046759 -0.431435  -0.170067 -0.043673 -1.092748
44  1.539090 -0.000007 -0.000007  -0.008418 -0.004709 0.257207
45  1.196317 -0.000011 -0.000002  -0.001916 0.001498 0.340551
46  3.883689 -0.046779 0.431461  0.077358 -0.032711 -0.975346
47  1.719570 -0.000010 0.000019  -0.016455 0.007486 0.346073
48  1.209181 -0.000000 0.000003  -0.013285 0.218147 0.233032
49  0.806046 -0.348926 1.321257  -1.311713 -0.100917 -0.490071
50  1.789790 -0.000012 0.000003  0.013444 -0.006842 -0.240260
51  1.206988 -0.000012 -0.000001  0.004838 -0.000675 -0.523338
52  3.859880 -0.137964 1.332477  0.348060 0.357251 -0.909409
53  1.626591 0.278279 0.482904  -0.140448 -0.249494 0.526755
54  1.099664 -0.000009 0.000010  -0.029963 0.225636 0.103081
55  5.740860 0.000033 -0.000001  0.000699 0.000000 0.000005
56  11.481697 0.000044 0.000003  0.001276 -0.000000 -0.000005
57  11.692570 -0.000014 -0.000002  -0.000005 -0.000000 -0.029500
58  5.559999 -0.000002 0.000003  0.000001 -0.000000 0.000000
59  1.499999 0.000006 -0.000002  -0.000001 -0.000000 0.000001
60  5.166966 -0.000008 0.000001  0.000000 -0.000001 -0.000000
61  -3.890452 -0.000009 0.000004  -1.743713 0.032370 -2.360795
62  17.848171 -0.000023 0.000000  -1.895099 -0.811736 1.766255
63  16.751202 0.839696 0.823282  0.660765 1.007185 -0.790138
64  6.879454 0.000007 -0.000003  -0.081333 -0.002949 -0.584374
65  3.890463 -0.000009 -0.000001  -2.102151 -0.120268 -0.816364
66  17.848181 -0.000138 -0.000007  0.035732 0.123571 1.800483
67  16.525248 0.000054 0.000001  0.207040 0.448710 -1.208061
68  6.879454 -0.000013 -0.000000  -0.007297 -0.002947 -0.584373
69  -0.044717 2.313938 4.661496  0.543338 -0.000574 0.000180
time 17
0  0.565368 2.315172 35.426506  1.167913 -0.000010 0.001257
1  0.000015 3.345152 -2.981899  1.568357 -0.182705 1.566015
2  4.018316 0.000007 -0.000000  0.002910 0.003530 0.278760
3  3.518569 0.000032 -0.000001  0.023980 -0.021369 0.247055
4  8.942605 0.000007 -0.000024  -0.024099 -0.003042 0.334413
5  3.307273 -0.000044 0.000009  -3.112060 0.038669 -0.001006
6  3.593684 -0.000051 -0.000014  0.072682 0.027068 0.522919
7  2.000652 -2.999561 0.000000  -1.570796 0.000000 -1.326228
8  2.033345 1.000751 -1.937596  -0.507002 1.573965 -2.099204
9  6.028131 0.000074 0.000003  0.487103 -0.617580 -0.826659
10  11.692543 -0.000020 0.000006  0.130370 0.069408 -0.302202
11  11.481742 0.000083 0.000023  -0.508821 0.693292 -0.241541
12  2.676088 -1.712441 -0.000009  -1.570793 -0.000003 -1.570908
13  3.859674 -0.132575 1.193095  0.503952 0.088447 -1.131154
14  1.312571 -0.000001 -0.000007  0.007020 0.013705 0.416211
15  0.729364 0.000003 -0.000002  -0.022520 0.093130 -0.100001
16  3.942293 0.050326 0.431028  0.169968 0.023610 -1.068981
17  1.539088 -0.000003 -0.000007  0.007358 0.004156 0.253297
18  1.196315 -0.000005 0.000003  0.005395 -0.034424 0.231145
19  3.883658 -0.050340 -0.431055  -0.076052 0.012624 -0.962322
20  1.719581 -0.000004 -0.000003  0.014693 -0.003842 0.345414
21  1.209177 -0.000002 -0.000001  0.021286 -0.219934 0.151279
22  3.859824 -0.148952 -1.331292  -0.350059 -0.052098 -0.853979
23  1.719434 0.000008 0.000001  0.010201 -0.004361 0.344407
24  1.099670 -0.000001 0.000001  0.032067 -0.218358 0.070563
25  0.806004 -0.359841 -1.318339  1.312286 0.086953 -0.484310
26  1.789783 -0.000011 -0.000007  -0.013350 0.003326 -0.241473
27  1.207008 0.000002 -0.000000  -0.002022 -0.048085 -0.530435
28  3.374500 -2.124247 0.498293  -0.019299 -3.117648 0.762496
29  5.740845 0.000046 -0.000004  -0.084220 0.345996 -0.031245
30  11.481696 0.000088 -0.000007  0.000148 -0.000000 0.000009
31  11.692554 -0.000009 -0.000002  0.000005 0.000000 -0.029505
32  5.559999 0.000003 -0.000005  -0.149006 -0.000000 -0.000005
33  1.500007 -0.000006 -0.000001  -0.286066 -0.000000 -0.000003
34  5.166964 0.000009 -0.000000  0.000000 -0.000001 0.000000
35  2.033336 1.000737 1.937672  -0.931769 -1.474192 -0.846388
36  6.028155 -0.000055 0.000007  -0.278768 0.719969 -0.909803
37  11.692537 -0.000031 0.000008  0.054373 -0.072982 -0.256735
38  11.481679 0.000038 -0.000031  0.137917 -0.803015 0.127521
39  2.676089 -1.712461 0.000002  1.570792 -0.000002 1.570605
40  3.859719 -0.142416 -1.191969  -0.504178 -0.098941 -1.172307
41  1.312552 0.000018 0.000003  -0.003487 -0.016064 0.412968
42  0.729357 0.000021 -0.000007  0.028460 -0.166430 0.038258
43  3.942333 0.046747 -0.431437  -0.169526 -0.030063 -1.092010
44  1.539097 0.000002 -0.000004  -0.006946 -0.004515 0.257059
45  1.196319 -0.000013 0.000005  -0.001539 0.001333 0.340664
46  3.883697 -0.046786 0.431452  0.077688 -0.020420 -0.975191
47  1.719567 -0.000016 0.000017  -0.015005 0.007621 0.346063
48  1.209180 0.000003 0.000004  -0.013010 0.218016 0.232915
49  0.806048 -0.348936 1.321259  -1.311188 -0.088957 -0.490719
50  1.789784 -0.000018 0.000005  0.013025 -0.006805 -0.240109
51  1.207001 -0.000004 -0.000001  0.004719 -0.000721 -0.523351
52  3.859860 -0.137969 1.332471  0.347661 0.370237 -0.909698
53  1.626594 0.278293 0.482907  -0.139045 -0.249384 0.526564
54  1.099648 -0.000014 0.000014  -0.029691 0.225490 0.103134
55  5.740851 0.000023 0.000002  0.000699 0.000000 0.000005
56  11.481698 0.000038 -0.000002  0.001275 -0.000000 -0.000005
57  11.692570 -0.000021 -0.000006  -0.000005 -0.000000 -0.029500
58  5.560004 -0.000014 0.000001  0.000001 -0.000000 0.000000
59  1.499999 0.000003 -0.000002  -0.000001 -0.000000 0.000001
60  5.166969 -0.000006 -0.000000  0.000000 -0.000001 0.000000
61  -3.890451 -0.000006 0.000006  -1.673261 0.121185 -2.095868
62  17.848179 -0.000017 0.000002  -1.402793 -0.721167 0.942482
63  16.751204 0.839700 0.823284  0.702197 1.039122 -0.754495
64  6.879453 0.000006 -0.000001  -0.081333 -0.002949 -0.584374
65  3.890465 -0.000009 -0.000001  -1.991127 -0.124868 -1.145773
66  17.848179 -0.000139 -0.000012  0.035067 0.104815 1.297691
67  16.525238 0.000051 -0.000002  0.077695 0.321609 -1.297865
68  6.879452 -0.000013 -0.000000  -0.007297 -0.002947 -0.584374
69  -0.044717 2.313934 4.661500  0.402884 -0.001152 -0.000502
time 18
0  0.571651 1.926798 37.021240  1.284795 0.000136 0.002540
1  0.000014 3.345134 -2.981899  1.568790 -0.052230 1.568960
2  4.018327 0.000007 -0.000000  0.002909 0.003529 0.284609
3  3.518544 0.000031 -0.000001  0.023980 -0.021369 0.247055
4  8.942621 0.000004 -0.000025  -0.022891 -0.002466 0.174714
5  3.307257 -0.000051 0.000008  -3.130507 0.018497 0.078587
6  3.593720 -0.000038 -0.000013  0.074721 0.006471 0.435556
7  2.000672 -2.999558 0.000000  -1.570796 0.000000 -1.326228
8  2.033334 1.000742 -1.937597  0.633649 1.654480 -0.833572
9  6.028143 0.000049 0.000010  0.334212 -0.239499 -1.002252
10  11.692539 -0.000030 0.000000  0.137207 0.060366 -0.235802
11  11.481745 0.000083 0.000041  -0.059638 0.551650 0.314351
12  2.676087 -1.712443 -0.000007  -1.570793 -0.000003 -1.570908
13  3.859673 -0.132570 1.193088  0.503393 0.076025 -1.130627
14  1.312558 -0.000009 -0.000006  0.005706 0.013606 0.416363
15  0.729363 0.000004 -0.000000  -0.022769 0.093159 -0.100216
16  3.942296 0.050318 0.431029  0.169573 0.013110 -1.068609
17  1.539088 0.000005 -0.000009  0.006313 0.004001 0.253286
18  1.196319 0.000007 0.000003  0.005141 -0.034312 0.231177
19  3.883654 -0.050334 -0.431055  -0.076277 0.003166 -0.962199
20  1.719566 -0.000005 -0.000004  0.013635 -0.003904 0.345533
21  1.209180 -0.000003 -0.000004  0.021104 -0.219903 0.151170
22  3.859824 -0.148939 -1.331300  -0.350319 -0.062114 -0.853942
23  1.719424 0.000011 0.000002  0.009180 -0.004405 0.344439
24  1.099667 0.000001 -0.000002  0.031888 -0.218334 0.070503
25  0.806013 -0.359836 -1.318336  1.311949 0.078113 -0.484530
26  1.789784 -0.000009 -0.000000  -0.013030 0.003292 -0.241376
27  1.207000 -0.000005 0.000007  -0.001926 -0.048039 -0.530464
28  3.374492 -2.124247 0.498291  -0.019299 -3.117648 0.762496
29  5.740842 0.000053 -0.000000  -0.084220 0.345996 -0.031245
30  11.481693 0.000090 -0.000004  0.000148 -0.000000 0.000009
31  11.692554 -0.000028 -0.000003  0.000005 0.000000 -0.029505
32  5.560001 -0.000008 -0.000003  -0.149006 -0.000000 -0.000005
33  1.500007 -0.000011 -0.000005  -0.286066 -0.000000 -0.000003
34  5.166964 0.000014 0.000003  0.000000 -0.000001 0.000000
35  2.033326 1.000725 1.937670  -1.243094 -1.557710 -0.405501
36  6.028151 -0.000032 0.000017  -0.160800 0.343994 -1.092305
37  11.692546 -0.000024 0.000019  0.054443 -0.073051 -0.257062
38  11.481673 0.000038 -0.000020  -0.176089 -0.465795 0.575836
39  2.676085 -1.712445 0.000007  1.570792 -0.000002 1.570605
40  3.859717 -0.142410 -1.191970  -0.503550 -0.085559 -1.171596
41  1.312567 0.000010 0.000001  -0.001892 -0.016142 0.412299
42  0.729358 0.000006 -0.000001  0.028723 -0.166303 0.038894
43  3.942335 0.046766 -0.431431  -0.169074 -0.018817 -1.091644
44  1.539093 0.000011 0.000004  -0.005723 -0.004365 0.256999
45  1.196331 -0.000013 0.000004  -0.001226 0.001202 0.340845
46  3.883688 -0.046780 0.431452  0.077958 -0.010281 -0.975106
47  1.719572 0.000000 0.000017  -0.013803 0.007746 0.346145
48  1.209175 0.000001 0.000008  -0.012779 0.217930 0.232916
49  0.806056 -0.348927 1.321263  -1.310796 -0.079403 -0.491016
50  1.789787 -0.000015 -0.000001  0.012715 -0.006779 -0.240020
51  1.206995 -0.000010 0.000003  0.004631 -0.000756 -0.523393
52  3.859857 -0.137957 1.332475  0.347331 0.380970 -0.909866
53  1.626592 0.278289 0.482909  -0.137901 -0.249265 0.526491
54  1.099657 -0.000003 0.000005  -0.029467 0.225388 0.103251
55  5.740863 0.000014 0.000008  0.000699 0.000000 0.000005
56  11.481716 0.000040 0.000002  0.001276 0.000000 -0.000005
57  11.692567 -0.000018 -0.000006  -0.000005 -0.000000 -0.029500
58  5.560012 0.000001 -0.000004  0.000001 -0.000000 0.000000
59  1.500011 0.000000 -0.000001  -0.000001 0.000000 0.000001
60  5.166966 0.000014 0.000003  0.000000 -0.000001 -0.000000
61  -3.890452 -0.000018 0.000010  -1.589579 0.147617 -1.878102
62  17.848177 -0.000021 -0.000004  -1.116096 -0.456623 0.461892
63  16.751198 0.839696 0.823287  0.641558 0.956495 -0.768415
64  6.879454 0.000007 -0.000003  -0.081333 -0.002949 -0.584374
65  3.890467 -0.000023 0.000001  -1.802646 0.099054 -1.454265
66  17.848198 -0.000131 -0.000010  -0.033092 0.042746 0.471958
67  16.525259 0.000053 -0.000003  0.009781 0.185432 -1.114292
68  6.879451 -0.000013 0.000001  -0.007297 -0.002947 -0.584374
69  -0.044717 2.313923 4.661499  0.286002 -0.002475 -0.000586
time 19
0  0.574772 1.331879 38.126602  1.345983 -0.000070 0.002591
1  0.000014 3.345147 -2.981901  1.569939 0.058135 1.571290
2  4.018326 0.000006 -0.000000  0.002908 0.003529 0.288577
3  3.518564 0.000033 -0.000001  0.023980 -0.021369 0.247055
4  8.942616 -0.000000 -0.000023  -0.021512 -0.002972 0.039379
5  3.307268 -0.000041 0.000010  -3.140529 0.003117 0.168352
6  3.593687 -0.000049 -0.000015  0.075672 -0.007443 0.344859
7  2.000661 -2.999562 0.000000  -1.570796 -0.000000 -1.326228
8  2.033339 1.000748 -1.937597  0.576724 1.723872 -0.789025
9  6.028137 0.000059 0.000009  0.184362 0.073036 -1.176301
10  11.692554 -0.000031 0.000007  0.142201 0.053709 -0.188702
11  11.481754 0.000084 0.000033  0.089353 0.265989 0.663735
12  2.676086 -1.712445 -0.000011  -1.570793 -0.000003 -1.570908
13  3.859676 -0.132561 1.193096  0.503019 0.067541 -1.130240
14  1.312558 -0.000012 -0.000009  0.004803 0.013660 0.415551
15  0.729356 0.000002 -0.000001  -0.022874 0.093077 -0.099450
16  3.942292 0.050325 0.431028  0.169306 0.006044 -1.068429
17  1.539098 -0.000013 -0.000007  0.005609 0.003896 0.253291
18  1.196318 -0.000005 0.000001  0.004971 -0.034232 0.231145
19  3.883651 -0.050322 -0.431058  -0.076428 -0.003191 -0.962093
20  1.719571 -0.000003 -0.000002  0.012924 -0.003942 0.345608
21  1.209182 -0.000003 -0.000001  0.020982 -0.219882 0.151086
22  3.859821 -0.148937 -1.331295  -0.350498 -0.068841 -0.853843
23  1.719429 0.000001 0.000002  0.008492 -0.004439 0.344447
24  1.099665 -0.000006 -0.000002  0.031767 -0.218311 0.070471
25  0.806013 -0.359838 -1.318342  1.311741 0.072342 -0.484573
26  1.789786 -0.000014 -0.000012  -0.012832 0.003271 -0.241308
27  1.207004 -0.000001 0.000003  -0.001866 -0.048010 -0.530484
28  3.374497 -2.124237 0.498291  -0.019299 -3.117648 0.762496
29  5.740842 0.000041 -0.000005  -0.084220 0.345996 -0.031245
30  11.481715 0.000088 -0.000012  0.000148 -0.000000 0.000009
31  11.692553 -0.000022 -0.000003  0.000005 0.000000 -0.029505
32  5.559985 -0.000008 -0.000000  -0.149006 -0.000000 -0.000005
33  1.499994 -0.000003 -0.000005  -0.286066 -0.000000 -0.000003
34  5.166964 0.000010 0.000003  0.000000 -0.000001 -0.000000
35  2.033321 1.000731 1.937669  -0.599696 -1.631387 -0.943123
36  6.028157 -0.000057 0.000016  -0.043527 0.039784 -1.267625
37  11.692540 -0.000033 0.000010  0.054821 -0.073422 -0.258842
38  11.481682 0.000041 -0.000021  -0.204539 -0.105906 0.832709
39  2.676083 -1.712454 0.000003  1.570792 -0.000002 1.570605
40  3.859711 -0.142425 -1.191965  -0.503110 -0.076763 -1.171609
41  1.312562 -0.000007 -0.000006  -0.000841 -0.016051 0.412831
42  0.729364 0.000007 -0.000006  0.028988 -0.166450 0.038872
43  3.942330 0.046768 -0.431437  -0.168773 -0.011280 -1.091659
44  1.539098 -0.000000 -0.000000  -0.004901 -0.004272 0.257174
45  1.196324 -0.000019 0.000004  -0.001018 0.001114 0.341270
46  3.883678 -0.046781 0.431451  0.078138 -0.003482 -0.975224
47  1.719569 -0.000011 0.000016  -0.012989 0.007853 0.346446
48  1.209186 0.000002 0.000004  -0.012621 0.217936 0.233143
49  0.806052 -0.348941 1.321261  -1.310540 -0.072956 -0.491044
50  1.789774 -0.000015 0.000008  0.012528 -0.006770 -0.240137
51  1.207016 -0.000004 0.000001  0.004581 -0.000782 -0.523683
52  3.859872 -0.137964 1.332475  0.347101 0.388227 -0.910149
53  1.626581 0.278273 0.482901  -0.137206 -0.249101 0.526784
54  1.099669 -0.000002 0.000008  -0.029323 0.225407 0.103602
55  5.740879 0.000023 0.000004  0.000699 0.000000 0.000005
56  11.481720 0.000042 0.000003  0.001276 0.000000 -0.000005
57  11.692567 -0.000024 -0.000006  -0.000005 -0.000000 -0.029500
58  5.559981 -0.000004 -0.000004  0.000001 -0.000000 -0.000000
59  1.499995 -0.000009 -0.000002  -0.000001 -0.000000 0.000001
60  5.166965 -0.000017 0.000002  0.000000 -0.000001 0.000000
61  -3.890452 -0.000014 0.000007  -1.525758 0.169083 -1.704586
62  17.848183 -0.000020 -0.000002  -1.000430 -0.152306 0.200029
63  16.751204 0.839697 0.823287  0.618801 0.829906 -0.808090
64  6.879454 0.000005 -0.000004  -0.081332 -0.002949 -0.584374
65  3.890466 -0.000009 0.000004  -1.699770 0.245047 -1.558146
66  17.848192 -0.000140 -0.000013  -0.034542 0.001535 0.032939
67  16.525248 0.000057 -0.000006  0.025159 0.094738 -1.003344
68  6.879451 -0.000014 -0.000000  -0.007297 -0.002947 -0.584373
69  -0.044717 2.313940 4.661498  0.224814 -0.002511 -0.000646
time 20
0  0.576132 0.860102 38.514908  1.356263 -0.000314 0.002294
1  0.000015 3.345141 -2.981899  1.570628 0.104055 1.572230
2  4.018320 0.000006 -0.000000  0.002908 0.003529 0.290040
3  3.518570 0.000031 -0.000001  0.023980 -0.021369 0.247055
4  8.942617 0.000002 -0.000024  -0.020856 -0.003468 -0.016967
5  3.307271 -0.000053 0.000006  3.139731 -0.002811 0.211022
6  3.593688 -0.000046 -0.000013  0.076253 -0.012623 0.296988
7  2.000660 -2.999560 0.000000  -1.570796 -0.000000 -1.326228
8  2.033341 1.000749 -1.937602  0.549199 1.752951 -0.774782
9  6.028137 0.000050 0.000007  0.106086 0.198338 -1.262219
10  11.692549 -0.000019 0.000005  0.144398 0.050855 -0.169567
11  11.481744 0.000092 0.000040  0.096481 0.120295 0.787228
12  2.676087 -1.712454 -0.000008  -1.570793 -0.000003 -1.570908
13  3.859676 -0.132571 1.193094  0.502877 0.064499 -1.130210
14  1.312559 -0.000005 -0.000009  0.004477 0.013635 0.415612
15  0.729357 0.000004 -0.000002  -0.022937 0.093088 -0.099499
16  3.942301 0.050320 0.431030  0.169209 0.003470 -1.068401
17  1.539085 -0.000009 -0.000005  0.005352 0.003858 0.253316
18  1.196320 -0.000004 0.000001  0.004908 -0.034203 0.231165
19  3.883655 -0.050334 -0.431056  -0.076484 -0.005508 -0.962068
20  1.719581 -0.000004 0.000001  0.012665 -0.003955 0.345655
21  1.209180 -0.000003 -0.000001  0.020938 -0.219880 0.151070
22  3.859826 -0.148947 -1.331294  -0.350565 -0.071297 -0.853810
23  1.719429 0.000007 0.000005  0.008241 -0.004453 0.344470
24  1.099664 0.000001 -0.000003  0.031723 -0.218308 0.070473
25  0.806021 -0.359850 -1.318337  1.311669 0.070263 -0.484566
26  1.789782 -0.000009 -0.000008  -0.012764 0.003263 -0.241291
27  1.207003 -0.000004 0.000001  -0.001845 -0.048000 -0.530502
28  3.374493 -2.124244 0.498293  -0.019299 -3.117648 0.762496
29  5.740850 0.000044 -0.000002  -0.084220 0.345996 -0.031245
30  11.481700 0.000089 -0.000007  0.000148 0.000000 0.000009
31  11.692555 -0.000019 -0.000003  0.000005 0.000000 -0.029505
32  5.560012 -0.000009 -0.000002  -0.149005 0.000000 -0.000005
33  1.500003 -0.000002 -0.000002  -0.286066 -0.000000 -0.000003
34  5.166965 0.000019 0.000004  0.000000 -0.000001 -0.000000
35  2.033322 1.000740 1.937668  -0.599379 -1.661677 -0.899748
36  6.028153 -0.000027 0.000015  0.019331 -0.079644 -1.351440
37  11.692576 -0.000026 0.000018  0.054802 -0.073403 -0.258748
38  11.481677 0.000045 -0.000023  -0.174752 0.055766 0.933744
39  2.676086 -1.712448 0.000002  1.570792 -0.000002 1.570605
40  3.859714 -0.142412 -1.191973  -0.502930 -0.073363 -1.171224
41  1.312559 -0.000002 0.000001  -0.000413 -0.015933 0.412368
42  0.729358 0.000010 -0.000004  0.029061 -0.166355 0.038332
43  3.942318 0.046763 -0.431428  -0.168651 -0.008455 -1.091291
44  1.539098 -0.000001 0.000001  -0.004595 -0.004228 0.256704
45  1.196326 -0.000018 -0.000001  -0.000937 0.001090 0.340746
46  3.883677 -0.046778 0.431452  0.078206 -0.000964 -0.974790
47  1.719584 -0.000014 0.000019  -0.012707 0.007832 0.345933
48  1.209183 -0.000006 0.000004  -0.012572 0.217777 0.232658
49  0.806037 -0.348924 1.321266  -1.310481 -0.071164 -0.491169
50  1.789795 -0.000013 0.000001  0.012451 -0.006706 -0.239245
51  1.206995 -0.000009 -0.000000  0.004561 -0.000819 -0.524001
52  3.859865 -0.137964 1.332473  0.347045 0.390757 -0.909640
53  1.626593 0.278296 0.482905  -0.136762 -0.249241 0.526031
54  1.099659 -0.000004 0.000011  -0.029251 0.225187 0.103074
55  5.740841 0.000021 0.000003  0.000699 0.000000 0.000005
56  11.481698 0.000042 0.000003  0.001275 0.000000 -0.000004
57  11.692562 -0.000014 -0.000005  -0.000005 -0.000000 -0.029500
58  5.560005 -0.000008 -0.000001  0.000001 -0.000000 -0.000000
59  1.500002 -0.000001 0.000000  -0.000001 -0.000000 0.000001
60  5.166969 -0.000013 0.000001  0.000000 -0.000001 -0.000000
61  -3.890452 -0.000002 0.000007  -1.497868 0.210372 -1.632704
62  17.848173 -0.000021 -0.000002  -0.970951 -0.055322 0.092702
63  16.751202 0.839698 0.823285  0.582410 0.782626 -0.827193
64  6.879454 0.000005 -0.000002  -0.081332 -0.002949 -0.584374
65  3.890466 -0.000004 -0.000001  -1.669445 0.233795 -1.568903
66  17.848185 -0.000126 -0.000006  -0.012475 0.000442 0.017833
67  16.525244 0.000050 0.000005  0.035883 0.053488 -1.022462
68  6.879452 -0.000014 -0.000000  -0.007297 -0.002947 -0.584373
69  -0.044717 2.313931 4.661498  0.214534 -0.002174 -0.000795
end
